<svg id="Layer_1" data-name="Layer 1" xmlns="http://www.w3.org/2000/svg" viewBox="0 0 144 36"><defs><style>.cls-1{fill:#00539f;}</style></defs><title>Artboard 1</title><path class="cls-1" d="M41.58,2.43,41.8,7h-.55a5.4,5.4,0,0,0-.43-1.73,2.92,2.92,0,0,0-1.19-1.24,4.23,4.23,0,0,0-2-.39H34.92V18.6a4,4,0,0,0,.39,2.25,2.19,2.19,0,0,0,1.69.6h.68V22h-8.3v-.54h.69a2,2,0,0,0,1.76-.75,4.23,4.23,0,0,0,.32-2.1V3.66H29.8a6.45,6.45,0,0,0-1.95.2,2.61,2.61,0,0,0-1.28,1.05A4.25,4.25,0,0,0,25.93,7h-.54l.23-4.59Z"/><path class="cls-1" d="M44.73,9v5.42h3a2.45,2.45,0,0,0,1.57-.36,2.26,2.26,0,0,0,.58-1.63h.38v4.76h-.38A5.33,5.33,0,0,0,49.61,16a1.26,1.26,0,0,0-.6-.56,3.1,3.1,0,0,0-1.27-.2h-3v4.52a4.37,4.37,0,0,0,.08,1.1.62.62,0,0,0,.29.31,1.64,1.64,0,0,0,.76.12h2.33a6.18,6.18,0,0,0,1.68-.16,2.49,2.49,0,0,0,1-.64,7.22,7.22,0,0,0,1.28-1.89h.41L51.39,22H40.84v-.38h.48a1.88,1.88,0,0,0,.92-.23.86.86,0,0,0,.44-.48,4.79,4.79,0,0,0,.11-1.33V10.68a2.94,2.94,0,0,0-.26-1.61,1.58,1.58,0,0,0-1.21-.4h-.48V8.3H51.39l.15,3h-.4a4.85,4.85,0,0,0-.46-1.49,1.63,1.63,0,0,0-.77-.61A4.23,4.23,0,0,0,48.49,9Z"/><path class="cls-1" d="M52.66,8.3h3.71l8.37,10.26V10.67a2.74,2.74,0,0,0-.28-1.58,1.5,1.5,0,0,0-1.18-.42H62.8V8.3h4.77v.37h-.49a1.4,1.4,0,0,0-1.23.53,3,3,0,0,0-.22,1.47V22.21h-.36l-9-11v8.44a2.81,2.81,0,0,0,.27,1.57,1.53,1.53,0,0,0,1.18.42h.49V22H53.41v-.38h.48a1.4,1.4,0,0,0,1.24-.52,3.06,3.06,0,0,0,.22-1.47V10.09a5.82,5.82,0,0,0-.9-.91,3.39,3.39,0,0,0-.91-.42,3.19,3.19,0,0,0-.88-.09Z"/><path class="cls-1" d="M68.18,8.3H71.9l8.37,10.26V10.67A2.74,2.74,0,0,0,80,9.09a1.52,1.52,0,0,0-1.18-.42h-.48V8.3H83.1v.37h-.49a1.39,1.39,0,0,0-1.23.53,3,3,0,0,0-.22,1.47V22.21h-.37l-9-11v8.44A2.81,2.81,0,0,0,72,21.19a1.53,1.53,0,0,0,1.18.42h.49V22H68.94v-.38h.48a1.4,1.4,0,0,0,1.24-.52,3.06,3.06,0,0,0,.22-1.47V10.09a6.3,6.3,0,0,0-.9-.91,3.39,3.39,0,0,0-.91-.42,3.22,3.22,0,0,0-.89-.09Z"/><path class="cls-1" d="M87.93,9v5.42h3a2.43,2.43,0,0,0,1.57-.36,2.26,2.26,0,0,0,.58-1.63h.38v4.76h-.38A4.86,4.86,0,0,0,92.81,16a1.29,1.29,0,0,0-.59-.56,3.19,3.19,0,0,0-1.28-.2h-3v4.52a3.75,3.75,0,0,0,.09,1.1.56.56,0,0,0,.28.31,1.66,1.66,0,0,0,.77.12h2.32a6.18,6.18,0,0,0,1.68-.16,2.49,2.49,0,0,0,1-.64,7.22,7.22,0,0,0,1.28-1.89h.41L94.59,22H84v-.38h.48a1.88,1.88,0,0,0,.92-.23.86.86,0,0,0,.44-.48A4.67,4.67,0,0,0,86,19.57V10.68a2.91,2.91,0,0,0-.27-1.61,1.58,1.58,0,0,0-1.21-.4H84V8.3H94.59l.15,3h-.39a5.08,5.08,0,0,0-.47-1.49,1.63,1.63,0,0,0-.77-.61A4.23,4.23,0,0,0,91.69,9Z"/><path class="cls-1" d="M105.32,8v4.74H105a5.92,5.92,0,0,0-.66-2.17A3.28,3.28,0,0,0,103,9.27a3.68,3.68,0,0,0-1.8-.48,2.49,2.49,0,0,0-1.74.64,2,2,0,0,0-.68,1.46A1.71,1.71,0,0,0,99.17,12a11,11,0,0,0,3,2,22,22,0,0,1,2.62,1.58,3.82,3.82,0,0,1,1.08,1.3,3.45,3.45,0,0,1,.38,1.56A3.52,3.52,0,0,1,105,21.17a4.32,4.32,0,0,1-3.1,1.13,6.6,6.6,0,0,1-1.12-.09,10.78,10.78,0,0,1-1.3-.37,6,6,0,0,0-1.25-.32.54.54,0,0,0-.4.15,1.17,1.17,0,0,0-.21.63h-.38V17.61h.38a6.68,6.68,0,0,0,.7,2.2A3.39,3.39,0,0,0,99.7,21a4.25,4.25,0,0,0,2,.48,2.87,2.87,0,0,0,2-.66,2.07,2.07,0,0,0,.73-1.58,2.12,2.12,0,0,0-.28-1,3,3,0,0,0-.86-1A24,24,0,0,0,101.14,16a21.14,21.14,0,0,1-2.5-1.57,4.54,4.54,0,0,1-1.13-1.3,3.26,3.26,0,0,1-.38-1.55,3.39,3.39,0,0,1,1.13-2.54A4,4,0,0,1,101.14,8a5.69,5.69,0,0,1,2.31.54,2.31,2.31,0,0,0,.8.25.59.59,0,0,0,.43-.16A1.24,1.24,0,0,0,105,8Z"/><path class="cls-1" d="M116.31,8v4.74h-.37a5.93,5.93,0,0,0-.65-2.17A3.37,3.37,0,0,0,114,9.27a3.68,3.68,0,0,0-1.8-.48,2.49,2.49,0,0,0-1.74.64,2,2,0,0,0-.68,1.46,1.71,1.71,0,0,0,.43,1.14,11,11,0,0,0,3,2,22,22,0,0,1,2.62,1.58,3.82,3.82,0,0,1,1.08,1.3,3.45,3.45,0,0,1,.38,1.56A3.52,3.52,0,0,1,116,21.17a4.32,4.32,0,0,1-3.1,1.13,6.6,6.6,0,0,1-1.12-.09,11.33,11.33,0,0,1-1.3-.37,6,6,0,0,0-1.25-.32.54.54,0,0,0-.4.15,1.26,1.26,0,0,0-.21.63h-.38V17.61h.38a6.68,6.68,0,0,0,.7,2.2A3.39,3.39,0,0,0,110.69,21a4.26,4.26,0,0,0,2,.48,2.86,2.86,0,0,0,2-.66,2.07,2.07,0,0,0,.73-1.58,2.12,2.12,0,0,0-.28-1,3,3,0,0,0-.86-1A24,24,0,0,0,112.13,16a22,22,0,0,1-2.5-1.57,4.35,4.35,0,0,1-1.12-1.3,3.16,3.16,0,0,1-.39-1.55,3.39,3.39,0,0,1,1.13-2.54A4.06,4.06,0,0,1,112.13,8a5.69,5.69,0,0,1,2.31.54,2.37,2.37,0,0,0,.8.25.59.59,0,0,0,.43-.16,1.24,1.24,0,0,0,.27-.63Z"/><path class="cls-1" d="M122,9v5.42h3a2.45,2.45,0,0,0,1.57-.36,2.26,2.26,0,0,0,.58-1.63h.38v4.76h-.38a5.33,5.33,0,0,0-.28-1.28,1.26,1.26,0,0,0-.6-.56,3.1,3.1,0,0,0-1.27-.2h-3v4.52a4.37,4.37,0,0,0,.08,1.1.62.62,0,0,0,.29.31,1.64,1.64,0,0,0,.76.12h2.33a6.18,6.18,0,0,0,1.68-.16,2.49,2.49,0,0,0,1-.64,7.22,7.22,0,0,0,1.28-1.89h.41L128.61,22H118.06v-.38h.48a1.88,1.88,0,0,0,.92-.23.9.9,0,0,0,.44-.48,4.67,4.67,0,0,0,.12-1.33V10.68a2.91,2.91,0,0,0-.27-1.61,1.58,1.58,0,0,0-1.21-.4h-.48V8.3h10.55l.15,3h-.4a4.85,4.85,0,0,0-.46-1.49,1.63,1.63,0,0,0-.77-.61A4.23,4.23,0,0,0,125.71,9Z"/><path class="cls-1" d="M134.2,9v5.42h3a2.43,2.43,0,0,0,1.57-.36,2.26,2.26,0,0,0,.58-1.63h.38v4.76h-.38a4.86,4.86,0,0,0-.28-1.28,1.29,1.29,0,0,0-.59-.56,3.15,3.15,0,0,0-1.28-.2h-3v4.52a3.91,3.91,0,0,0,.08,1.1.56.56,0,0,0,.28.31,1.66,1.66,0,0,0,.77.12h2.32a6.18,6.18,0,0,0,1.68-.16,2.49,2.49,0,0,0,1-.64,7.47,7.47,0,0,0,1.29-1.89h.4L140.85,22H130.3v-.38h.48a1.85,1.85,0,0,0,.92-.23.86.86,0,0,0,.44-.48,4.67,4.67,0,0,0,.12-1.33V10.68A2.91,2.91,0,0,0,132,9.07a1.58,1.58,0,0,0-1.21-.4h-.48V8.3h10.55l.15,3h-.39a4.79,4.79,0,0,0-.47-1.49,1.61,1.61,0,0,0-.76-.61A4.3,4.3,0,0,0,138,9Z"/><path class="cls-1" d="M35.86,23.76v4h-.31A5,5,0,0,0,35,25.94a2.92,2.92,0,0,0-1.14-1.09,3.11,3.11,0,0,0-1.52-.4,2.08,2.08,0,0,0-1.47.54,1.65,1.65,0,0,0-.58,1.24,1.47,1.47,0,0,0,.36,1,9.7,9.7,0,0,0,2.53,1.72,18.14,18.14,0,0,1,2.22,1.33,3.39,3.39,0,0,1,.91,1.1,2.86,2.86,0,0,1,.32,1.33,3,3,0,0,1-1,2.27,3.69,3.69,0,0,1-2.63,1,5.7,5.7,0,0,1-.95-.08,9.8,9.8,0,0,1-1.1-.31,4.93,4.93,0,0,0-1.05-.27.42.42,0,0,0-.34.13.93.93,0,0,0-.19.53H29v-4h.31a5.76,5.76,0,0,0,.6,1.87,3,3,0,0,0,1.15,1,3.65,3.65,0,0,0,1.7.41,2.4,2.4,0,0,0,1.69-.57,1.75,1.75,0,0,0,.62-1.33,1.92,1.92,0,0,0-.23-.87,2.53,2.53,0,0,0-.74-.81c-.22-.17-.83-.53-1.82-1.09a18.7,18.7,0,0,1-2.12-1.33,3.84,3.84,0,0,1-.95-1.09,2.69,2.69,0,0,1-.32-1.32,2.83,2.83,0,0,1,.95-2.15,3.4,3.4,0,0,1,2.44-.91,4.77,4.77,0,0,1,2,.46,2.07,2.07,0,0,0,.68.21.48.48,0,0,0,.36-.13,1.14,1.14,0,0,0,.23-.54Z"/><path class="cls-1" d="M43.83,27.51l.09,1.9h-.23a2,2,0,0,0-.18-.71,1.18,1.18,0,0,0-.49-.52,1.74,1.74,0,0,0-.81-.16H41.06v6.2a1.78,1.78,0,0,0,.16.94.89.89,0,0,0,.7.25h.29v.22H38.76v-.22h.29a.82.82,0,0,0,.73-.31,1.82,1.82,0,0,0,.13-.88V28h-1a3,3,0,0,0-.81.08,1.13,1.13,0,0,0-.54.44,1.87,1.87,0,0,0-.26.87H37.1l.1-1.9Z"/><path class="cls-1" d="M49,32.91H45.83l-.55,1.28a2.15,2.15,0,0,0-.2.71.45.45,0,0,0,.17.33,1.67,1.67,0,0,0,.77.18v.22H43.46v-.22a1.46,1.46,0,0,0,.66-.23A4,4,0,0,0,44.8,34l2.85-6.69h.21l2.83,6.76a3.19,3.19,0,0,0,.62,1.06,1.28,1.28,0,0,0,.78.27v.22H48.88v-.22a1.31,1.31,0,0,0,.66-.16.44.44,0,0,0,.17-.34,2.51,2.51,0,0,0-.24-.83Zm-.17-.44-1.38-3.28L46,32.47Z"/><path class="cls-1" d="M58.43,27.51l.09,1.9h-.23a2,2,0,0,0-.18-.71,1.18,1.18,0,0,0-.49-.52A1.76,1.76,0,0,0,56.8,28H55.66v6.2a1.68,1.68,0,0,0,.16.94.89.89,0,0,0,.7.25h.28v.22H53.36v-.22h.29a.83.83,0,0,0,.73-.31,1.82,1.82,0,0,0,.13-.88V28h-1a2.9,2.9,0,0,0-.8.08,1.13,1.13,0,0,0-.54.44,1.76,1.76,0,0,0-.26.87H51.7l.1-1.9Z"/><path class="cls-1" d="M61.29,28v3.21h1.78A1.43,1.43,0,0,0,64,31a1.3,1.3,0,0,0,.35-1h.22v2.83h-.22a3,3,0,0,0-.17-.76.75.75,0,0,0-.35-.33,1.85,1.85,0,0,0-.76-.12H61.29v2.68a2.49,2.49,0,0,0,.05.65.42.42,0,0,0,.16.19,1.19,1.19,0,0,0,.46.07h1.38a3.46,3.46,0,0,0,1-.1,1.41,1.41,0,0,0,.6-.38,4.67,4.67,0,0,0,.76-1.12h.24l-.7,2H59v-.22h.29a1.14,1.14,0,0,0,.54-.14.5.5,0,0,0,.26-.29,2.6,2.6,0,0,0,.07-.78V28.92A1.68,1.68,0,0,0,60,28a.91.91,0,0,0-.71-.24H59v-.22h6.26l.09,1.78h-.24a2.49,2.49,0,0,0-.28-.88,1,1,0,0,0-.45-.37,2.69,2.69,0,0,0-.84-.09Z"/><path class="cls-1" d="M77.25,24.34V24h4.11v.31h-.44a1.17,1.17,0,0,0-1,.58,2.63,2.63,0,0,0-.18,1.23v4.71a8.28,8.28,0,0,1-.35,2.7A3.36,3.36,0,0,1,78,35.22a4.9,4.9,0,0,1-2.76.68,5.29,5.29,0,0,1-2.88-.65,3.58,3.58,0,0,1-1.4-1.78,9.9,9.9,0,0,1-.27-2.85V26.08a2.32,2.32,0,0,0-.29-1.4,1.24,1.24,0,0,0-1-.34H69V24h5v.31h-.45a1.15,1.15,0,0,0-1,.46,2.41,2.41,0,0,0-.22,1.28v5.06a11.68,11.68,0,0,0,.13,1.55,3.24,3.24,0,0,0,.45,1.36,2.45,2.45,0,0,0,.93.8,3.27,3.27,0,0,0,1.51.32,4.15,4.15,0,0,0,2-.5,2.64,2.64,0,0,0,1.23-1.27,7.32,7.32,0,0,0,.33-2.62v-4.7a2.39,2.39,0,0,0-.24-1.36,1.25,1.25,0,0,0-1-.38Z"/><path class="cls-1" d="M80.6,27.51h2.21l5,6.09V28.92a1.68,1.68,0,0,0-.16-.94.89.89,0,0,0-.7-.25h-.29v-.22h2.83v.22h-.29a.83.83,0,0,0-.73.31,1.82,1.82,0,0,0-.13.88v6.84h-.21l-5.36-6.54v5a1.68,1.68,0,0,0,.16.94.89.89,0,0,0,.7.25h.29v.22H81.05v-.22h.28a.82.82,0,0,0,.74-.31,1.82,1.82,0,0,0,.13-.88V28.58a3.54,3.54,0,0,0-.53-.55,2,2,0,0,0-.54-.25,2.18,2.18,0,0,0-.53-.05Z"/><path class="cls-1" d="M93.39,35.41v.22H89.91v-.22h.29a.87.87,0,0,0,.73-.29,1.82,1.82,0,0,0,.14-.93V29a2.89,2.89,0,0,0-.07-.82.56.56,0,0,0-.25-.26,1.18,1.18,0,0,0-.55-.14h-.29v-.22h3.48v.22H93.1a.9.9,0,0,0-.73.29,1.79,1.79,0,0,0-.15.93v5.24a2.77,2.77,0,0,0,.08.82.62.62,0,0,0,.25.26,1.21,1.21,0,0,0,.55.14Z"/><path class="cls-1" d="M102.42,27.51v.22a1.26,1.26,0,0,0-.66.28,2.39,2.39,0,0,0-.56.89l-2.83,6.92h-.22l-3.05-7a2.93,2.93,0,0,0-.33-.65,1,1,0,0,0-.36-.29,1.76,1.76,0,0,0-.59-.14v-.22h3.31v.22a1.6,1.6,0,0,0-.73.19.44.44,0,0,0-.16.36,2.71,2.71,0,0,0,.27.93L98.58,34l1.91-4.7a3.15,3.15,0,0,0,.29-1,.46.46,0,0,0-.18-.34,1.14,1.14,0,0,0-.59-.22l-.1,0v-.22Z"/><path class="cls-1" d="M105.15,28v3.21h1.78a1.47,1.47,0,0,0,.93-.21,1.35,1.35,0,0,0,.35-1h.22v2.83h-.22a3.5,3.5,0,0,0-.17-.76.73.73,0,0,0-.36-.33,1.76,1.76,0,0,0-.75-.12h-1.78v2.68a2.7,2.7,0,0,0,0,.65.44.44,0,0,0,.17.19,1.11,1.11,0,0,0,.46.07h1.37a3.42,3.42,0,0,0,1-.1,1.41,1.41,0,0,0,.6-.38,4.39,4.39,0,0,0,.76-1.12h.24l-.7,2h-6.26v-.22h.29a1.21,1.21,0,0,0,.55-.14.53.53,0,0,0,.26-.29,3,3,0,0,0,.07-.78V28.92a1.77,1.77,0,0,0-.16-1,.92.92,0,0,0-.72-.24h-.29v-.22h6.26l.09,1.78H109a3,3,0,0,0-.28-.88,1,1,0,0,0-.45-.37,2.72,2.72,0,0,0-.85-.09Z"/><path class="cls-1" d="M118,35.63h-2.17l-2.75-3.8-.49,0h-.36v2.36a1.72,1.72,0,0,0,.17,1,.87.87,0,0,0,.68.26h.32v.22H110v-.22h.31a.79.79,0,0,0,.73-.34,1.76,1.76,0,0,0,.13-.88V29a1.72,1.72,0,0,0-.17-1,.89.89,0,0,0-.69-.26H110v-.22h3a6.89,6.89,0,0,1,1.91.19,2.08,2.08,0,0,1,1,.69,1.79,1.79,0,0,1,.43,1.21,1.88,1.88,0,0,1-.49,1.3,2.75,2.75,0,0,1-1.51.78L116,34a4.33,4.33,0,0,0,1,1.06,2.5,2.5,0,0,0,1.08.34Zm-5.77-4.17h.34a2.67,2.67,0,0,0,1.75-.5,1.62,1.62,0,0,0,.59-1.28A1.65,1.65,0,0,0,113.21,28a5.08,5.08,0,0,0-.94.12Z"/><path class="cls-1" d="M123.28,27.32v2.81h-.22a3.39,3.39,0,0,0-.39-1.29,2.07,2.07,0,0,0-.79-.76,2.28,2.28,0,0,0-1.07-.28,1.47,1.47,0,0,0-1,.38,1.18,1.18,0,0,0-.4.87,1,1,0,0,0,.25.68,7,7,0,0,0,1.77,1.19,11.43,11.43,0,0,1,1.55.94,2.24,2.24,0,0,1,.64.77,2,2,0,0,1,.23.93,2.11,2.11,0,0,1-.72,1.59,2.6,2.6,0,0,1-1.84.67,3.45,3.45,0,0,1-.66-.06,5.8,5.8,0,0,1-.77-.22,4,4,0,0,0-.74-.19.37.37,0,0,0-.24.09.74.74,0,0,0-.13.38h-.22V33h.22a4.27,4.27,0,0,0,.42,1.31,2,2,0,0,0,.81.72,2.49,2.49,0,0,0,1.19.29,1.66,1.66,0,0,0,1.18-.4,1.2,1.2,0,0,0,.43-.93,1.29,1.29,0,0,0-.16-.61,1.77,1.77,0,0,0-.51-.56,14.39,14.39,0,0,0-1.28-.77,12.75,12.75,0,0,1-1.48-.93,2.4,2.4,0,0,1-.67-.77,1.9,1.9,0,0,1-.23-.92,2,2,0,0,1,.67-1.5,2.37,2.37,0,0,1,1.71-.64,3.44,3.44,0,0,1,1.37.32,1.42,1.42,0,0,0,.48.15.37.37,0,0,0,.25-.09.71.71,0,0,0,.16-.38Z"/><path class="cls-1" d="M127.72,35.41v.22h-3.48v-.22h.28a.91.91,0,0,0,.74-.29,1.94,1.94,0,0,0,.14-.93V29a2.77,2.77,0,0,0-.08-.82.59.59,0,0,0-.24-.26,1.22,1.22,0,0,0-.56-.14h-.28v-.22h3.48v.22h-.3a.86.86,0,0,0-.72.29,1.79,1.79,0,0,0-.15.93v5.24a2.77,2.77,0,0,0,.08.82.56.56,0,0,0,.25.26,1.14,1.14,0,0,0,.54.14Z"/><path class="cls-1" d="M135,27.51l.09,1.9h-.22a2.63,2.63,0,0,0-.18-.71,1.2,1.2,0,0,0-.5-.52,1.69,1.69,0,0,0-.81-.16h-1.14v6.2a1.68,1.68,0,0,0,.16.94.88.88,0,0,0,.7.25h.28v.22h-3.44v-.22h.28a.84.84,0,0,0,.74-.31,2,2,0,0,0,.13-.88V28h-1a3,3,0,0,0-.81.08,1.11,1.11,0,0,0-.53.44,1.66,1.66,0,0,0-.26.87h-.23l.09-1.9Z"/><path class="cls-1" d="M141.17,27.51H144v.22h-.16a1.28,1.28,0,0,0-.45.14,1.85,1.85,0,0,0-.55.39,6.09,6.09,0,0,0-.6.84l-2,3.09v2a1.66,1.66,0,0,0,.17.94.91.91,0,0,0,.72.25h.26v.22H138v-.22h.29a.83.83,0,0,0,.73-.31,1.82,1.82,0,0,0,.13-.88V32.3l-2.23-3.4a7.56,7.56,0,0,0-.53-.75,2.19,2.19,0,0,0-.59-.36.77.77,0,0,0-.34-.06v-.22h3.47v.22h-.18a1,1,0,0,0-.52.13.43.43,0,0,0-.24.4,2,2,0,0,0,.37.78L140,31.65l1.6-2.5a1.85,1.85,0,0,0,.36-.84.53.53,0,0,0-.09-.3.56.56,0,0,0-.25-.2,1.19,1.19,0,0,0-.48-.08Z"/><path class="cls-1" d="M22.6,34.07V4.34a2,2,0,0,0-2-2h-9L11.5.79a.43.43,0,0,0,.21-.36A.43.43,0,0,0,11.28,0a.43.43,0,0,0-.43.43.42.42,0,0,0,.2.36L11,2.37H2a2,2,0,0,0-2,2V34.07a2,2,0,0,0,2,2H20.63a2,2,0,0,0,2-2ZM20.2,2.79a2,2,0,0,1,2,2v15l-.84-1.44h0l-1-.31-6-1.64,4.18.83c-1.06-1.63-2.12-4.16-3.6-5.34a6.4,6.4,0,0,0-2.81-1.51,1.13,1.13,0,0,0,.26-.7V7.74c.16-.08.26-.18.26-.28s-.21-.29-.52-.37h0c-.06,0-.16-.07-.17-.16h0l-.26-4.12ZM14.71,35.63V26h0a2,2,0,0,1,.86-1.73h0s.55-.11.57,1.7,0,8.54,0,9.63ZM11.13,3.8,11.3,7A.8.8,0,0,0,11,7Zm.17,3.85v2.57a.87.87,0,0,1-.66-.92V7.89C10.64,7.68,11.3,7.65,11.3,7.65Zm-.46,10.79v1.61H8.26V18.44h0a.19.19,0,0,1,.19-.2h2.2a.2.2,0,0,1,.19.2ZM8.26,21.67v-.33h2.58v.33Zm2.58.37v.34H8.26V22ZM8.26,20.7v-.33h2.58v.33Zm-.59-3.11v-.38H11.3v.38Zm-1,5v-.36l1.14-.68v.36Zm1.14-.36v.38l-1.14.67v-.37Zm-1.14-.62v-.38l1.14-.69V21Zm0-.7V19.36h0a.3.3,0,0,1,.12-.25l.88-.55h0c.07,0,.12,0,.13.09h0v1.6Zm1-3.94v-.27H11.3V17ZM11,11v5.34H8.9l.8-3.91C9.8,11.75,10.28,11,11,11ZM9.27,12.33c-.11.5-.79,4-.79,4H7.38L4.91,18s2.55-5.17,3.27-5.86a8.16,8.16,0,0,1,2.07-1.27A2,2,0,0,0,9.27,12.33Zm-2,4.57v.26L1.64,20.75v-.24Zm0,.5v.42L1.64,21.39V21Zm-1,3v1.67L4.74,23H4.5v-1.5ZM2.83,24.76v-.34l1-.61v.34Zm1-.3v.36l-1,.61v-.36Zm-1-.63v-.36l1-.62v.36Zm0-.67v-1.5h0A.32.32,0,0,1,3,21.42l.77-.48h0c.07,0,.12,0,.13.1h0v1.52Zm0,2.57,1-.6v10.5h-1ZM4.5,23.88l1.71-1v.75a1,1,0,0,0-.25.1,3.16,3.16,0,0,0-1.18,2.5v9.44H4.5ZM5,35.63V26.54A2.75,2.75,0,0,1,6.1,24,.6.6,0,0,1,6.21,24v.54a3.82,3.82,0,0,0-.47,2v9.09Zm1.63-12L7.8,23V35.63H6.66Zm1.6,12V22.73h2.58v12.9ZM15,23a3.29,3.29,0,0,0-1.84.66,2,2,0,0,1,2-1.05,2.45,2.45,0,0,1,2.19,2.19h0V35.63h-.51l0-10.69A2,2,0,0,0,15,23Zm5.45,1.76V35.61h-.63V23.89Zm-.2-2.57v-.29l.24.35v.28Zm.35-.37-.52-.76v-.86l.52.76Zm0-2.15,0-.73.7,1.06,0,.72Zm.51-.87v-.26l.71,1.1v.26ZM.43,33.65V4.77h0a2,2,0,0,1,2-2h8.53l-.26,4.12h0c0,.09-.11.14-.17.16h-.05c-.31.08-.52.22-.52.37s.1.2.26.28V9.68a1.06,1.06,0,0,0,.27.71,11.42,11.42,0,0,0-2.55,1.46c-1.18,1.24-3.06,5.78-4,6.83L1.18,20.41v1.07l1.13,1.68v.92l-.15.09v.46l.15.21,0,10.78A2,2,0,0,1,.43,33.65ZM21,35.46V24.26l.27-.18v-.46L21,23.16V21.35l.68-.48V20.3l.52-.22V33.65A2,2,0,0,1,21,35.46Z"/></svg>