<?xml version="1.0" encoding="iso-8859-1"?>
<!-- Generator: Adobe Illustrator 18.1.1, SVG Export Plug-In . SVG Version: 6.00 Build 0)  -->
<!DOCTYPE svg PUBLIC "-//W3C//DTD SVG 1.1//EN" "http://www.w3.org/Graphics/SVG/1.1/DTD/svg11.dtd">
<svg version="1.1" id="Layer_1" xmlns="http://www.w3.org/2000/svg" xmlns:xlink="http://www.w3.org/1999/xlink" x="0px" y="0px"
	 viewBox="0 0 248.562 101.812" style="enable-background:new 0 0 248.562 101.812;" xml:space="preserve">
<g>
	<g>
		<path style="fill:#FFFFFF;" d="M83.381,30.631l0.292,6.179h-0.738c-0.143-1.088-0.337-1.865-0.583-2.331
			c-0.402-0.751-0.935-1.305-1.603-1.662c-0.668-0.356-1.545-0.535-2.633-0.535h-3.711v20.131c0,1.619,0.175,2.63,0.525,3.031
			c0.492,0.544,1.25,0.816,2.273,0.816h0.913v0.719H66.943v-0.719h0.933c1.114,0,1.904-0.337,2.371-1.011
			c0.285-0.415,0.428-1.36,0.428-2.837V32.282h-3.168c-1.231,0-2.105,0.091-2.623,0.272c-0.674,0.247-1.25,0.719-1.729,1.419
			c-0.48,0.699-0.764,1.645-0.855,2.836H61.56l0.311-6.179H83.381z"/>
		<path style="fill:#FFFFFF;" d="M87.625,39.542v7.291h4.053c1.052,0,1.755-0.159,2.108-0.476c0.471-0.417,0.735-1.152,0.789-2.204
			h0.503v6.42h-0.503c-0.127-0.898-0.254-1.474-0.381-1.727c-0.163-0.317-0.43-0.567-0.803-0.748
			c-0.372-0.181-0.943-0.272-1.714-0.272h-4.053v6.08c0,0.816,0.036,1.312,0.108,1.489c0.073,0.176,0.2,0.318,0.381,0.421
			c0.181,0.105,0.526,0.157,1.034,0.157h3.128c1.043,0,1.801-0.073,2.271-0.218c0.472-0.145,0.926-0.431,1.361-0.857
			c0.562-0.562,1.137-1.41,1.727-2.544h0.544l-1.591,4.625H82.374v-0.503h0.653c0.435,0,0.848-0.104,1.238-0.313
			c0.29-0.145,0.487-0.363,0.591-0.653c0.104-0.289,0.156-0.883,0.156-1.781V41.745c0-1.17-0.118-1.891-0.354-2.163
			c-0.326-0.362-0.87-0.544-1.632-0.544h-0.653v-0.503h14.214l0.203,4.04h-0.53c-0.19-0.97-0.401-1.637-0.632-1.999
			c-0.232-0.363-0.574-0.64-1.027-0.83c-0.363-0.136-1.003-0.204-1.918-0.204H87.625z"/>
		<path style="fill:#FFFFFF;" d="M98.298,38.535h5.006l11.276,13.833V41.732c0-1.133-0.127-1.841-0.381-2.122
			c-0.335-0.381-0.866-0.572-1.591-0.572h-0.64v-0.503h6.42v0.503h-0.653c-0.779,0-1.333,0.237-1.659,0.708
			c-0.2,0.29-0.299,0.952-0.299,1.986v15.546h-0.49l-12.16-14.853v11.358c0,1.133,0.122,1.841,0.367,2.122
			c0.344,0.381,0.875,0.572,1.591,0.572h0.653v0.503h-6.42v-0.503h0.64c0.789,0,1.346-0.236,1.673-0.707
			c0.2-0.291,0.299-0.952,0.299-1.986V40.957c-0.535-0.626-0.941-1.038-1.217-1.238c-0.277-0.2-0.683-0.386-1.218-0.558
			c-0.263-0.082-0.662-0.123-1.197-0.123V38.535z"/>
		<path style="fill:#FFFFFF;" d="M119.218,38.535h5.006l11.276,13.833V41.732c0-1.133-0.127-1.841-0.381-2.122
			c-0.335-0.381-0.866-0.572-1.591-0.572h-0.639v-0.503h6.42v0.503h-0.653c-0.78,0-1.333,0.237-1.659,0.708
			c-0.2,0.29-0.3,0.952-0.3,1.986v15.546h-0.49l-12.16-14.853v11.358c0,1.133,0.123,1.841,0.367,2.122
			c0.345,0.381,0.875,0.572,1.592,0.572h0.653v0.503h-6.42v-0.503h0.639c0.789,0,1.347-0.236,1.674-0.707
			c0.199-0.291,0.299-0.952,0.299-1.986V40.957c-0.535-0.626-0.941-1.038-1.218-1.238c-0.277-0.2-0.683-0.386-1.217-0.558
			c-0.263-0.082-0.663-0.123-1.197-0.123V38.535z"/>
		<path style="fill:#FFFFFF;" d="M145.825,39.542v7.291h4.053c1.052,0,1.754-0.159,2.108-0.476c0.471-0.417,0.735-1.152,0.789-2.204
			h0.504v6.42h-0.504c-0.127-0.898-0.253-1.474-0.381-1.727c-0.163-0.317-0.43-0.567-0.801-0.748
			c-0.372-0.181-0.944-0.272-1.714-0.272h-4.053v6.08c0,0.816,0.036,1.312,0.109,1.489c0.072,0.176,0.2,0.318,0.381,0.421
			c0.182,0.105,0.526,0.157,1.034,0.157h3.128c1.042,0,1.8-0.073,2.271-0.218c0.472-0.145,0.925-0.431,1.361-0.857
			c0.562-0.562,1.137-1.41,1.726-2.544h0.545l-1.591,4.625h-14.215v-0.503h0.653c0.436,0,0.848-0.104,1.238-0.313
			c0.29-0.145,0.487-0.363,0.592-0.653c0.104-0.289,0.156-0.883,0.156-1.781V41.745c0-1.17-0.117-1.891-0.354-2.163
			c-0.325-0.362-0.87-0.544-1.632-0.544h-0.653v-0.503h14.215l0.204,4.04h-0.53c-0.191-0.97-0.402-1.637-0.634-1.999
			c-0.23-0.363-0.573-0.64-1.026-0.83c-0.363-0.136-1.002-0.204-1.918-0.204H145.825z"/>
		<path style="fill:#FFFFFF;" d="M169.246,38.114v6.379h-0.503c-0.163-1.225-0.456-2.199-0.878-2.925
			c-0.421-0.725-1.022-1.301-1.802-1.727c-0.78-0.426-1.587-0.639-2.421-0.639c-0.944,0-1.723,0.288-2.339,0.863
			c-0.616,0.576-0.925,1.231-0.925,1.966c0,0.562,0.195,1.074,0.585,1.537c0.563,0.68,1.9,1.586,4.013,2.72
			c1.723,0.926,2.9,1.635,3.53,2.129c0.63,0.494,1.115,1.076,1.455,1.747c0.341,0.672,0.51,1.374,0.51,2.109
			c0,1.396-0.541,2.6-1.625,3.611c-1.084,1.011-2.478,1.517-4.183,1.517c-0.534,0-1.038-0.041-1.51-0.123
			c-0.281-0.045-0.863-0.21-1.748-0.496c-0.884-0.286-1.444-0.428-1.679-0.428c-0.226,0-0.406,0.068-0.538,0.204
			c-0.132,0.136-0.229,0.417-0.292,0.843h-0.504v-6.326h0.504c0.235,1.325,0.553,2.315,0.951,2.972
			c0.4,0.658,1.009,1.204,1.831,1.639c0.82,0.436,1.72,0.653,2.699,0.653c1.134,0,2.029-0.299,2.687-0.897
			c0.658-0.598,0.986-1.306,0.986-2.122c0-0.453-0.124-0.912-0.374-1.374c-0.25-0.463-0.638-0.894-1.163-1.293
			c-0.354-0.272-1.32-0.85-2.897-1.734c-1.578-0.884-2.7-1.589-3.367-2.116c-0.667-0.526-1.172-1.106-1.517-1.741
			c-0.344-0.634-0.516-1.333-0.516-2.095c0-1.323,0.507-2.463,1.523-3.421c1.016-0.957,2.308-1.435,3.877-1.435
			c0.979,0,2.018,0.24,3.115,0.72c0.508,0.227,0.866,0.34,1.074,0.34c0.237,0,0.429-0.07,0.579-0.211
			c0.15-0.14,0.27-0.424,0.361-0.849H169.246z"/>
		<path style="fill:#FFFFFF;" d="M184.053,38.114v6.379h-0.503c-0.163-1.225-0.456-2.199-0.878-2.925
			c-0.421-0.725-1.022-1.301-1.802-1.727c-0.78-0.426-1.587-0.639-2.421-0.639c-0.944,0-1.724,0.288-2.34,0.863
			c-0.617,0.576-0.924,1.231-0.924,1.966c0,0.562,0.195,1.074,0.585,1.537c0.562,0.68,1.899,1.586,4.012,2.72
			c1.723,0.926,2.899,1.635,3.53,2.129c0.63,0.494,1.116,1.076,1.456,1.747c0.339,0.672,0.51,1.374,0.51,2.109
			c0,1.396-0.543,2.6-1.626,3.611c-1.084,1.011-2.478,1.517-4.183,1.517c-0.535,0-1.037-0.041-1.509-0.123
			c-0.281-0.045-0.864-0.21-1.748-0.496c-0.883-0.286-1.444-0.428-1.679-0.428c-0.228,0-0.407,0.068-0.537,0.204
			c-0.132,0.136-0.23,0.417-0.293,0.843h-0.503v-6.326h0.503c0.236,1.325,0.553,2.315,0.953,2.972
			c0.399,0.658,1.008,1.204,1.829,1.639c0.821,0.436,1.722,0.653,2.701,0.653c1.133,0,2.029-0.299,2.686-0.897
			c0.657-0.598,0.986-1.306,0.986-2.122c0-0.453-0.126-0.912-0.375-1.374c-0.249-0.463-0.636-0.894-1.163-1.293
			c-0.353-0.272-1.319-0.85-2.896-1.734c-1.578-0.884-2.701-1.589-3.367-2.116c-0.666-0.526-1.172-1.106-1.517-1.741
			c-0.344-0.634-0.517-1.333-0.517-2.095c0-1.323,0.508-2.463,1.523-3.421c1.016-0.957,2.308-1.435,3.877-1.435
			c0.979,0,2.018,0.24,3.114,0.72c0.509,0.227,0.867,0.34,1.075,0.34c0.236,0,0.428-0.07,0.579-0.211
			c0.149-0.14,0.27-0.424,0.36-0.849H184.053z"/>
		<path style="fill:#FFFFFF;" d="M191.657,39.542v7.291h4.054c1.052,0,1.754-0.159,2.108-0.476c0.471-0.417,0.734-1.152,0.789-2.204
			h0.503v6.42h-0.503c-0.127-0.898-0.254-1.474-0.38-1.727c-0.164-0.317-0.432-0.567-0.803-0.748
			c-0.372-0.181-0.943-0.272-1.714-0.272h-4.054v6.08c0,0.816,0.036,1.312,0.108,1.489c0.074,0.176,0.2,0.318,0.381,0.421
			c0.181,0.105,0.525,0.157,1.034,0.157h3.128c1.043,0,1.799-0.073,2.271-0.218c0.472-0.145,0.925-0.431,1.361-0.857
			c0.562-0.562,1.138-1.41,1.728-2.544h0.543l-1.592,4.625h-14.214v-0.503h0.653c0.436,0,0.848-0.104,1.238-0.313
			c0.289-0.145,0.487-0.363,0.591-0.653c0.104-0.289,0.157-0.883,0.157-1.781V41.745c0-1.17-0.118-1.891-0.354-2.163
			c-0.326-0.362-0.87-0.544-1.632-0.544h-0.653v-0.503h14.214l0.205,4.04h-0.531c-0.19-0.97-0.401-1.637-0.632-1.999
			c-0.232-0.363-0.574-0.64-1.027-0.83c-0.363-0.136-1.002-0.204-1.918-0.204H191.657z"/>
		<path style="fill:#FFFFFF;" d="M208.149,39.542v7.291h4.055c1.051,0,1.755-0.159,2.108-0.476c0.471-0.417,0.734-1.152,0.788-2.204
			h0.504v6.42h-0.504c-0.126-0.898-0.253-1.474-0.38-1.727c-0.164-0.317-0.431-0.567-0.803-0.748
			c-0.372-0.181-0.943-0.272-1.713-0.272h-4.055v6.08c0,0.816,0.036,1.312,0.109,1.489c0.073,0.176,0.2,0.318,0.381,0.421
			c0.18,0.105,0.525,0.157,1.033,0.157h3.128c1.044,0,1.801-0.073,2.272-0.218c0.472-0.145,0.925-0.431,1.361-0.857
			c0.562-0.562,1.137-1.41,1.727-2.544h0.544l-1.592,4.625H202.9v-0.503h0.652c0.436,0,0.849-0.104,1.239-0.313
			c0.289-0.145,0.487-0.363,0.591-0.653c0.105-0.289,0.156-0.883,0.156-1.781V41.745c0-1.17-0.117-1.891-0.353-2.163
			c-0.326-0.362-0.87-0.544-1.633-0.544H202.9v-0.503h14.213l0.204,4.04h-0.53c-0.19-0.97-0.401-1.637-0.632-1.999
			c-0.231-0.363-0.574-0.64-1.027-0.83c-0.363-0.136-1.002-0.204-1.918-0.204H208.149z"/>
	</g>
	<g>
		<path style="fill:#FFFFFF;" d="M75.676,59.371v5.407h-0.427c-0.138-1.037-0.386-1.863-0.743-2.478
			c-0.358-0.615-0.867-1.103-1.527-1.465c-0.661-0.36-1.345-0.541-2.052-0.541c-0.799,0-1.46,0.244-1.982,0.731
			c-0.523,0.489-0.784,1.043-0.784,1.666c0,0.476,0.165,0.91,0.496,1.303c0.476,0.576,1.61,1.344,3.4,2.305
			c1.46,0.784,2.457,1.385,2.991,1.804c0.534,0.419,0.945,0.913,1.233,1.482c0.288,0.568,0.432,1.164,0.432,1.786
			c0,1.183-0.459,2.203-1.378,3.06c-0.918,0.857-2.1,1.285-3.544,1.285c-0.454,0-0.881-0.035-1.28-0.104
			c-0.238-0.038-0.732-0.178-1.481-0.421c-0.749-0.241-1.224-0.363-1.424-0.363c-0.192,0-0.344,0.058-0.455,0.173
			c-0.111,0.114-0.194,0.353-0.248,0.714h-0.426v-5.36h0.426c0.2,1.122,0.468,1.962,0.807,2.518c0.338,0.558,0.855,1.021,1.55,1.389
			c0.696,0.368,1.459,0.554,2.289,0.554c0.96,0,1.719-0.254,2.277-0.761c0.557-0.507,0.836-1.107,0.836-1.798
			c0-0.384-0.105-0.773-0.317-1.164c-0.211-0.391-0.539-0.756-0.985-1.095c-0.299-0.23-1.118-0.72-2.455-1.469
			c-1.338-0.749-2.289-1.346-2.853-1.793c-0.565-0.445-0.993-0.938-1.285-1.476c-0.292-0.537-0.438-1.129-0.438-1.775
			c0-1.122,0.43-2.089,1.291-2.899c0.861-0.811,1.955-1.217,3.285-1.217c0.829,0,1.71,0.205,2.64,0.611
			c0.43,0.192,0.733,0.289,0.91,0.289c0.199,0,0.363-0.06,0.49-0.179c0.126-0.119,0.228-0.359,0.305-0.721H75.676z"/>
		<path style="fill:#FFFFFF;" d="M86.406,64.418l0.121,2.566H86.22c-0.06-0.452-0.14-0.774-0.242-0.967
			c-0.167-0.313-0.389-0.543-0.666-0.69c-0.277-0.148-0.641-0.222-1.093-0.222h-1.541v8.36c0,0.672,0.072,1.092,0.218,1.259
			c0.204,0.226,0.519,0.338,0.944,0.338h0.379v0.298h-4.64v-0.298h0.388c0.463,0,0.791-0.14,0.984-0.419
			c0.118-0.172,0.178-0.565,0.178-1.178v-8.36h-1.316c-0.511,0-0.874,0.038-1.089,0.113c-0.28,0.102-0.519,0.298-0.718,0.589
			c-0.199,0.29-0.318,0.683-0.355,1.178h-0.307l0.13-2.566H86.406z"/>
		<path style="fill:#FFFFFF;" d="M93.342,71.696h-4.236l-0.742,1.727c-0.183,0.425-0.274,0.742-0.274,0.952
			c0,0.166,0.079,0.313,0.238,0.44c0.158,0.126,0.502,0.209,1.029,0.246v0.298H85.91v-0.298c0.457-0.081,0.753-0.186,0.887-0.314
			c0.275-0.258,0.578-0.784,0.912-1.574l3.849-9.005h0.282l3.809,9.102c0.307,0.731,0.585,1.206,0.835,1.423
			c0.25,0.219,0.599,0.341,1.044,0.368v0.298h-4.316v-0.298c0.436-0.021,0.73-0.094,0.883-0.218c0.153-0.124,0.23-0.275,0.23-0.453
			c0-0.236-0.108-0.61-0.323-1.121L93.342,71.696z M93.116,71.099l-1.856-4.422l-1.904,4.422H93.116z"/>
		<path style="fill:#FFFFFF;" d="M106.073,64.418l0.122,2.566h-0.307c-0.06-0.452-0.14-0.774-0.242-0.967
			c-0.167-0.313-0.389-0.543-0.665-0.69c-0.278-0.148-0.642-0.222-1.093-0.222h-1.541v8.36c0,0.672,0.072,1.092,0.218,1.259
			c0.204,0.226,0.519,0.338,0.944,0.338h0.38v0.298h-4.64v-0.298h0.387c0.463,0,0.791-0.14,0.985-0.419
			c0.118-0.172,0.178-0.565,0.178-1.178v-8.36h-1.316c-0.511,0-0.874,0.038-1.089,0.113c-0.28,0.102-0.519,0.298-0.718,0.589
			c-0.2,0.29-0.318,0.683-0.355,1.178h-0.306l0.129-2.566H106.073z"/>
		<path style="fill:#FFFFFF;" d="M109.929,65.015v4.325h2.404c0.624,0,1.041-0.094,1.251-0.283c0.279-0.246,0.435-0.683,0.468-1.307
			h0.299v3.809h-0.299c-0.076-0.534-0.151-0.874-0.226-1.025c-0.097-0.188-0.255-0.336-0.476-0.444
			c-0.221-0.107-0.56-0.161-1.017-0.161h-2.404v3.607c0,0.484,0.021,0.779,0.064,0.884c0.043,0.104,0.118,0.188,0.226,0.25
			c0.108,0.062,0.312,0.092,0.614,0.092h1.856c0.619,0,1.068-0.043,1.348-0.13c0.28-0.085,0.548-0.255,0.806-0.508
			c0.334-0.334,0.675-0.836,1.025-1.509h0.322l-0.944,2.743h-8.432v-0.298h0.387c0.259,0,0.503-0.062,0.734-0.186
			c0.172-0.086,0.289-0.214,0.351-0.386c0.061-0.173,0.093-0.526,0.093-1.057v-7.108c0-0.694-0.07-1.122-0.21-1.283
			c-0.194-0.216-0.516-0.324-0.968-0.324h-0.387v-0.299h8.432l0.121,2.397h-0.314c-0.113-0.576-0.238-0.97-0.376-1.185
			c-0.137-0.216-0.34-0.38-0.609-0.493c-0.215-0.081-0.594-0.121-1.137-0.121H109.929z"/>
		<path style="fill:#FFFFFF;" d="M131.431,60.155v-0.426h5.533v0.426h-0.587c-0.616,0-1.087,0.258-1.417,0.773
			c-0.162,0.238-0.242,0.791-0.242,1.66v6.34c0,1.567-0.156,2.783-0.467,3.648c-0.311,0.865-0.922,1.606-1.833,2.226
			c-0.911,0.618-2.15,0.928-3.718,0.928c-1.706,0-3.001-0.296-3.885-0.888c-0.884-0.591-1.51-1.387-1.879-2.386
			c-0.245-0.684-0.368-1.967-0.368-3.85v-6.11c0-0.959-0.133-1.59-0.398-1.89c-0.266-0.3-0.694-0.45-1.286-0.45h-0.588v-0.426h6.755
			v0.426h-0.6c-0.645,0-1.106,0.204-1.383,0.611c-0.192,0.277-0.288,0.853-0.288,1.729v6.813c0,0.607,0.057,1.303,0.167,2.087
			c0.111,0.783,0.313,1.394,0.605,1.832c0.292,0.437,0.713,0.799,1.262,1.083c0.55,0.284,1.224,0.427,2.023,0.427
			c1.022,0,1.936-0.223,2.743-0.669c0.807-0.446,1.358-1.016,1.655-1.712c0.296-0.695,0.443-1.873,0.443-3.533v-6.329
			c0-0.976-0.107-1.586-0.323-1.833c-0.3-0.338-0.745-0.507-1.337-0.507H131.431z"/>
		<path style="fill:#FFFFFF;" d="M135.951,64.418h2.969l6.689,8.206v-6.309c0-0.673-0.076-1.093-0.225-1.259
			c-0.2-0.226-0.514-0.339-0.944-0.339h-0.379v-0.299h3.808v0.299h-0.387c-0.463,0-0.791,0.14-0.984,0.42
			c-0.119,0.172-0.178,0.565-0.178,1.179v9.222h-0.291l-7.215-8.811v6.738c0,0.672,0.074,1.092,0.219,1.259
			c0.204,0.226,0.518,0.338,0.943,0.338h0.387v0.298h-3.808v-0.298h0.378c0.469,0,0.799-0.14,0.993-0.419
			c0.118-0.172,0.178-0.565,0.178-1.178v-7.609c-0.317-0.372-0.559-0.616-0.723-0.734c-0.164-0.119-0.404-0.229-0.722-0.331
			c-0.156-0.048-0.393-0.073-0.71-0.073V64.418z"/>
		<path style="fill:#FFFFFF;" d="M153.179,75.061v0.298h-4.688v-0.298h0.387c0.452,0,0.78-0.132,0.984-0.395
			c0.129-0.172,0.194-0.587,0.194-1.243v-7.069c0-0.554-0.036-0.92-0.105-1.097c-0.054-0.134-0.164-0.25-0.331-0.347
			c-0.236-0.13-0.484-0.194-0.742-0.194h-0.387v-0.299h4.688v0.299h-0.395c-0.447,0-0.772,0.132-0.977,0.395
			c-0.134,0.172-0.202,0.587-0.202,1.243v7.069c0,0.554,0.035,0.92,0.105,1.097c0.054,0.134,0.166,0.25,0.339,0.348
			c0.232,0.128,0.476,0.193,0.735,0.193H153.179z"/>
		<path style="fill:#FFFFFF;" d="M165.336,64.418v0.299c-0.387,0.07-0.681,0.194-0.879,0.371c-0.285,0.264-0.538,0.667-0.759,1.211
			l-3.816,9.312h-0.299l-4.1-9.433c-0.21-0.484-0.358-0.78-0.444-0.888c-0.134-0.166-0.299-0.297-0.496-0.392
			c-0.196-0.094-0.461-0.154-0.795-0.181v-0.299h4.47v0.299c-0.506,0.049-0.834,0.134-0.985,0.259
			c-0.151,0.124-0.226,0.282-0.226,0.476c0,0.268,0.124,0.688,0.37,1.259l2.784,6.415l2.583-6.334c0.252-0.624,0.38-1.057,0.38-1.3
			c0-0.155-0.079-0.305-0.234-0.447c-0.157-0.143-0.419-0.244-0.791-0.302c-0.027-0.006-0.072-0.014-0.136-0.025v-0.299H165.336z"/>
		<path style="fill:#FFFFFF;" d="M169.013,65.015v4.325h2.404c0.624,0,1.041-0.094,1.251-0.283c0.279-0.246,0.436-0.683,0.468-1.307
			h0.299v3.809h-0.299c-0.076-0.534-0.15-0.874-0.225-1.025c-0.097-0.188-0.256-0.336-0.477-0.444
			c-0.22-0.107-0.559-0.161-1.017-0.161h-2.404v3.607c0,0.484,0.021,0.779,0.064,0.884c0.043,0.104,0.118,0.188,0.226,0.25
			c0.107,0.062,0.312,0.092,0.614,0.092h1.855c0.619,0,1.069-0.043,1.348-0.13c0.28-0.085,0.549-0.255,0.807-0.508
			c0.334-0.334,0.675-0.836,1.025-1.509h0.321l-0.943,2.743h-8.432v-0.298h0.387c0.259,0,0.504-0.062,0.735-0.186
			c0.172-0.086,0.288-0.214,0.35-0.386c0.062-0.173,0.093-0.526,0.093-1.057v-7.108c0-0.694-0.07-1.122-0.21-1.283
			c-0.193-0.216-0.516-0.324-0.968-0.324h-0.387v-0.299h8.432l0.121,2.397h-0.315c-0.113-0.576-0.238-0.97-0.375-1.185
			c-0.137-0.216-0.34-0.38-0.609-0.493c-0.215-0.081-0.595-0.121-1.138-0.121H169.013z"/>
		<path style="fill:#FFFFFF;" d="M186.386,75.359h-2.921l-3.703-5.116c-0.276,0.011-0.498,0.017-0.67,0.017
			c-0.07,0-0.146-0.001-0.227-0.004c-0.08-0.002-0.163-0.007-0.251-0.012v3.18c0,0.689,0.076,1.117,0.227,1.283
			c0.204,0.236,0.51,0.354,0.92,0.354h0.426v0.298h-4.687v-0.298h0.411c0.462,0,0.794-0.15,0.993-0.452
			c0.113-0.167,0.17-0.562,0.17-1.186v-7.069c0-0.688-0.076-1.116-0.227-1.283c-0.21-0.237-0.522-0.355-0.936-0.355h-0.411v-0.299
			h3.985c1.163,0,2.019,0.085,2.571,0.255c0.55,0.17,1.02,0.481,1.403,0.936c0.385,0.455,0.577,0.996,0.577,1.626
			c0,0.672-0.219,1.256-0.658,1.751c-0.438,0.494-1.117,0.844-2.037,1.048l2.259,3.139c0.517,0.721,0.961,1.2,1.332,1.436
			c0.372,0.237,0.856,0.387,1.453,0.452V75.359z M178.615,69.735c0.103,0,0.191,0.002,0.267,0.005
			c0.075,0.004,0.137,0.004,0.185,0.004c1.044,0,1.83-0.226,2.361-0.678c0.53-0.452,0.795-1.027,0.795-1.727
			c0-0.683-0.214-1.239-0.642-1.667c-0.426-0.427-0.993-0.641-1.699-0.641c-0.312,0-0.733,0.051-1.267,0.153V69.735z"/>
		<path style="fill:#FFFFFF;" d="M193.444,64.168v3.784h-0.298c-0.096-0.725-0.27-1.303-0.521-1.735
			c-0.249-0.43-0.606-0.771-1.07-1.025c-0.462-0.253-0.942-0.379-1.435-0.379c-0.56,0-1.023,0.17-1.388,0.512
			c-0.367,0.342-0.549,0.73-0.549,1.166c0,0.334,0.115,0.637,0.346,0.912c0.334,0.403,1.127,0.941,2.381,1.613
			c1.022,0.549,1.72,0.97,2.093,1.263c0.374,0.293,0.662,0.639,0.864,1.037c0.202,0.397,0.303,0.814,0.303,1.25
			c0,0.829-0.321,1.543-0.964,2.142c-0.644,0.601-1.469,0.9-2.481,0.9c-0.317,0-0.616-0.024-0.895-0.073
			c-0.167-0.027-0.513-0.125-1.037-0.295c-0.524-0.169-0.857-0.254-0.997-0.254c-0.134,0-0.241,0.041-0.318,0.121
			c-0.078,0.081-0.136,0.247-0.175,0.5h-0.298v-3.752h0.298c0.14,0.785,0.329,1.373,0.566,1.763c0.236,0.39,0.598,0.714,1.085,0.972
			c0.487,0.258,1.021,0.387,1.602,0.387c0.673,0,1.203-0.177,1.593-0.533c0.391-0.355,0.585-0.774,0.585-1.258
			c0-0.269-0.074-0.541-0.221-0.815c-0.148-0.274-0.379-0.53-0.69-0.767c-0.211-0.16-0.784-0.504-1.719-1.028
			c-0.936-0.525-1.601-0.943-1.998-1.255c-0.394-0.312-0.695-0.656-0.899-1.032c-0.205-0.377-0.308-0.791-0.308-1.243
			c0-0.786,0.302-1.462,0.904-2.029c0.603-0.568,1.369-0.852,2.3-0.852c0.58,0,1.197,0.142,1.848,0.427
			c0.301,0.135,0.514,0.202,0.638,0.202c0.14,0,0.253-0.041,0.342-0.125c0.09-0.083,0.16-0.251,0.214-0.504H193.444z"/>
		<path style="fill:#FFFFFF;" d="M199.422,75.061v0.298h-4.688v-0.298h0.388c0.452,0,0.78-0.132,0.985-0.395
			c0.129-0.172,0.194-0.587,0.194-1.243v-7.069c0-0.554-0.035-0.92-0.105-1.097c-0.054-0.134-0.164-0.25-0.331-0.347
			c-0.236-0.13-0.484-0.194-0.742-0.194h-0.388v-0.299h4.688v0.299h-0.395c-0.447,0-0.772,0.132-0.976,0.395
			c-0.134,0.172-0.202,0.587-0.202,1.243v7.069c0,0.554,0.035,0.92,0.105,1.097c0.053,0.134,0.167,0.25,0.338,0.348
			c0.232,0.128,0.476,0.193,0.734,0.193H199.422z"/>
		<path style="fill:#FFFFFF;" d="M209.171,64.418l0.121,2.566h-0.307c-0.059-0.452-0.14-0.774-0.241-0.967
			c-0.167-0.313-0.389-0.543-0.665-0.69c-0.278-0.148-0.642-0.222-1.094-0.222h-1.542v8.36c0,0.672,0.073,1.092,0.218,1.259
			c0.205,0.226,0.519,0.338,0.945,0.338h0.379v0.298h-4.64v-0.298h0.388c0.462,0,0.79-0.14,0.984-0.419
			c0.118-0.172,0.177-0.565,0.177-1.178v-8.36h-1.316c-0.511,0-0.874,0.038-1.089,0.113c-0.28,0.102-0.519,0.298-0.718,0.589
			c-0.199,0.29-0.318,0.683-0.355,1.178h-0.307l0.129-2.566H209.171z"/>
		<path style="fill:#FFFFFF;" d="M217.541,64.418h3.817v0.299h-0.211c-0.14,0-0.344,0.062-0.613,0.185
			c-0.27,0.124-0.514,0.302-0.734,0.533c-0.221,0.232-0.492,0.608-0.815,1.13l-2.639,4.155v2.744c0,0.672,0.075,1.092,0.226,1.259
			c0.204,0.226,0.527,0.338,0.968,0.338h0.355v0.298h-4.647v-0.298h0.387c0.463,0,0.791-0.14,0.984-0.419
			c0.118-0.172,0.177-0.565,0.177-1.178v-2.591l-3.001-4.583c-0.355-0.537-0.595-0.873-0.722-1.008
			c-0.126-0.134-0.388-0.296-0.787-0.484c-0.108-0.054-0.263-0.081-0.468-0.081v-0.299h4.68v0.299h-0.242
			c-0.253,0-0.486,0.06-0.699,0.178c-0.212,0.119-0.318,0.296-0.318,0.533c0,0.194,0.164,0.543,0.492,1.049l2.283,3.527l2.147-3.372
			c0.321-0.506,0.484-0.883,0.484-1.13c0-0.151-0.04-0.285-0.117-0.403c-0.078-0.118-0.19-0.211-0.335-0.279
			c-0.145-0.067-0.363-0.101-0.653-0.101V64.418z"/>
	</g>
	<path style="fill:#FFFFFF;" d="M57.806,73.255V33.208c0-1.469-1.191-2.659-2.66-2.659H42.983l-0.13-2.122
		c0.165-0.101,0.276-0.283,0.276-0.492c0-0.319-0.259-0.578-0.578-0.578c-0.319,0-0.577,0.259-0.577,0.578
		c0,0.209,0.111,0.391,0.276,0.492l-0.132,2.122H30.019c-1.469,0-2.66,1.191-2.66,2.659c0,0.031,0.004,0.062,0.004,0.094v39.96
		c0,1.468,1.189,2.657,2.656,2.66l0,0h25.127c1.469,0,2.66-1.191,2.66-2.66C57.806,73.258,57.806,73.257,57.806,73.255z
		 M54.576,31.119c1.468,0,2.66,1.192,2.66,2.66v20.243l-1.127-1.942v0.001l-1.358-0.425l-8.093-2.197l5.641,1.113
		c-1.431-2.197-2.863-5.6-4.854-7.202c-1.754-1.412-2.224-1.527-3.786-2.022c0.206-0.227,0.354-0.622,0.354-0.952v-2.616
		c0.215-0.104,0.343-0.233,0.343-0.371c0-0.204-0.273-0.384-0.695-0.501l0,0c0,0-0.004-0.001-0.01-0.002
		c-0.017-0.005-0.035-0.009-0.053-0.014c-0.083-0.026-0.224-0.084-0.23-0.206c-0.001-0.006-0.005-0.008-0.007-0.012l-0.342-5.554
		H54.576z M47.182,75.352l-0.007-12.944l0.009,0.001c0.062-1.136,0.526-2.028,1.163-2.335c0.001,0.004,0.002,0.008,0.002,0.013
		l0.007,0.002c0,0,0.746-0.148,0.774,2.3c0.025,2.253,0.009,11.499,0.006,12.963H47.182z M42.359,32.475l0.223,4.306
		c0,0-0.231-0.05-0.447,0L42.359,32.475z M42.582,37.659v3.473c0,0-0.893-0.163-0.893-1.246v-1.9
		C41.689,37.699,42.582,37.659,42.582,37.659z M41.96,52.198v2.165h-3.479v-2.165l0,0c0,0,0,0,0-0.002
		c0-0.143,0.116-0.259,0.259-0.259H41.7l0,0c0.144,0,0.259,0.117,0.259,0.259C41.96,52.197,41.959,52.198,41.96,52.198L41.96,52.198
		z M38.481,56.548v-0.447h3.479v0.447H38.481z M41.96,57.048v0.461h-3.479v-0.461H41.96z M38.481,55.25v-0.453h3.479v0.453H38.481z
		 M37.699,51.058v-0.509h4.884v0.509H37.699z M36.335,57.83v-0.483l1.537-0.92v0.488L36.335,57.83z M37.871,57.351v0.51
		l-1.537,0.904V58.26L37.871,57.351z M36.335,56.513v-0.514l1.537-0.931v0.518L36.335,56.513z M36.335,55.569v-2.131l0.003-0.002
		c0.011-0.132,0.08-0.274,0.167-0.329l1.193-0.747v0.005c0.089-0.055,0.16,0.001,0.17,0.123l0.003-0.002v2.148L36.335,55.569z
		 M37.699,50.257v-0.365h4.882v0.365H37.699z M42.148,42.144v7.2H39.35l1.08-5.265C40.565,43.186,41.211,42.144,42.148,42.144z
		 M39.842,43.969c-0.141,0.67-1.053,5.375-1.053,5.375h-1.486l-3.334,2.296c0,0,3.446-6.965,4.415-7.907
		c0.968-0.943,2.788-1.709,2.788-1.709C40.127,42.767,39.983,43.297,39.842,43.969z M37.103,50.13v0.347l-7.535,4.842v-0.332
		L37.103,50.13z M37.103,50.803v0.567l-7.535,4.807v-0.542L37.103,50.803z M35.726,54.898v2.247l-1.986,1.208h-0.325v-2.011
		L35.726,54.898z M31.168,60.719V60.26l1.396-0.829v0.463L31.168,60.719z M32.563,60.309v0.485l-1.396,0.818v-0.482L32.563,60.309z
		 M31.168,59.465v-0.49l1.396-0.838v0.494L31.168,59.465z M31.168,58.566v-2.026l0.008-0.005c0.015-0.129,0.081-0.263,0.165-0.316
		l1.038-0.652c0.004-0.003,0.008-0.009,0.012-0.011c0.089-0.055,0.158,0.003,0.167,0.128l0.006-0.004v2.043L31.168,58.566z
		 M31.168,62.021l1.396-0.815v14.146H31.17L31.168,62.021z M33.415,59.522l2.311-1.394v1.006c-0.108,0.028-0.218,0.07-0.332,0.138
		c-0.883,0.529-1.593,2.034-1.593,3.366l0.01,12.714h-0.397V59.522z M34.13,75.352V63.116c0-1.805,0.526-2.731,1.448-3.396
		c0.049-0.035,0.099-0.063,0.148-0.087v0.731c-0.318,0.505-0.634,1.354-0.639,2.752v12.236H34.13z M36.335,59.197l1.537-0.901
		v17.056h-1.537V59.197z M38.481,75.352V57.979h3.479v17.373H38.481z M47.568,58.37c-0.735-0.065-1.976,0.477-2.477,0.895
		c0.482-0.939,1.487-1.527,2.654-1.425c1.547,0.135,2.814,1.433,2.944,2.956l0.015,0.002v14.554h-0.68l0.046-14.392
		C49.946,59.512,49.037,58.499,47.568,58.37z M54.915,60.746v14.581h-0.857V59.542L54.915,60.746z M54.646,57.277V56.89l0.321,0.464
		v0.385L54.646,57.277z M55.109,56.776l-0.695-1.013v-1.161l0.695,1.025V56.776z M55.086,53.885l-0.038-0.986l0.938,1.432
		l0.037,0.97L55.086,53.885z M55.766,52.717v-0.36l0.964,1.481v0.357L55.766,52.717z M27.935,72.697V33.779l0,0
		c0-1.47,1.191-2.66,2.66-2.66h11.488l-0.346,5.553c-0.002,0.004-0.006,0.006-0.006,0.013c-0.008,0.121-0.148,0.18-0.232,0.206
		c-0.018,0.005-0.035,0.009-0.053,0.014c-0.005,0.001-0.009,0.002-0.009,0.002l0.001,0c-0.422,0.117-0.695,0.297-0.695,0.501
		c0,0.138,0.128,0.266,0.342,0.371v2.616c0,0.371,0.142,0.706,0.369,0.964c-1.125,0.51-2.795,1.33-3.435,1.97
		c-1.588,1.665-4.126,7.779-5.422,9.189l-3.646,2.334v1.444l1.524,2.269l-0.011,1.228l-0.191,0.125v0.62l0.191,0.284l-0.053,14.522
		C29.029,75.254,27.935,74.104,27.935,72.697z M55.628,75.135V60.036l0.365-0.232v-0.621l-0.365-0.622V56.12l0.905-0.643V54.7
		l0.701-0.292v18.251c0,0.011,0.001,0.02,0.001,0.032C57.236,73.786,56.574,74.727,55.628,75.135z"/>
</g>
</svg>
