<?xml version="1.0" encoding="UTF-8"?>
<svg xmlns="http://www.w3.org/2000/svg" xmlns:xlink="http://www.w3.org/1999/xlink" width="24px" height="24px" viewBox="0 0 24 24" version="1.1">
<g id="surface1">
<path style=" stroke:none;fill-rule:nonzero;fill:rgb(0%,0%,0%);fill-opacity:1;" d="M 16.53125 4.429688 C 16.578125 4.460938 16.625 4.484375 16.671875 4.507812 C 16.75 4.554688 16.828125 4.609375 16.90625 4.664062 C 16.945312 4.6875 16.976562 4.710938 17.015625 4.742188 C 17.304688 4.9375 17.578125 5.148438 17.84375 5.382812 C 17.867188 5.40625 17.867188 5.40625 17.890625 5.429688 C 18.03125 5.546875 18.15625 5.671875 18.28125 5.804688 C 18.304688 5.820312 18.328125 5.84375 18.34375 5.859375 C 18.375 5.890625 18.40625 5.921875 18.429688 5.945312 C 18.445312 5.960938 18.46875 5.984375 18.484375 6 C 18.523438 6.039062 18.523438 6.039062 18.523438 6.078125 C 18.53125 6.078125 18.546875 6.078125 18.5625 6.078125 C 18.585938 6.109375 18.617188 6.140625 18.640625 6.171875 C 18.664062 6.203125 18.664062 6.203125 18.6875 6.234375 C 18.695312 6.25 18.703125 6.257812 18.710938 6.265625 C 18.757812 6.320312 18.796875 6.367188 18.835938 6.414062 C 19 6.617188 19.164062 6.828125 19.304688 7.046875 C 19.328125 7.078125 19.351562 7.117188 19.375 7.15625 C 19.507812 7.351562 19.625 7.554688 19.742188 7.757812 C 19.75 7.773438 19.757812 7.789062 19.765625 7.804688 C 20.257812 8.6875 20.5625 9.679688 20.71875 10.679688 C 20.71875 10.71875 20.71875 10.71875 20.726562 10.757812 C 20.78125 11.140625 20.804688 11.515625 20.804688 11.898438 C 20.804688 11.929688 20.804688 11.929688 20.804688 11.960938 C 20.804688 12.3125 20.789062 12.65625 20.742188 13 C 20.734375 13.023438 20.734375 13.046875 20.726562 13.078125 C 20.6875 13.390625 20.625 13.695312 20.546875 14 C 20.546875 14.015625 20.539062 14.03125 20.539062 14.046875 C 20.453125 14.367188 20.351562 14.6875 20.234375 15 C 20.234375 15.015625 20.226562 15.03125 20.21875 15.046875 C 20.007812 15.617188 19.734375 16.148438 19.398438 16.65625 C 19.390625 16.671875 19.382812 16.6875 19.375 16.703125 C 19.210938 16.953125 19.03125 17.195312 18.835938 17.4375 C 18.789062 17.5 18.734375 17.5625 18.6875 17.625 C 18.671875 17.640625 18.671875 17.640625 18.65625 17.65625 C 18.648438 17.65625 18.632812 17.65625 18.617188 17.65625 C 18.617188 17.671875 18.609375 17.679688 18.601562 17.695312 C 18.578125 17.742188 18.554688 17.773438 18.515625 17.8125 C 18.507812 17.820312 18.492188 17.835938 18.484375 17.851562 C 18.46875 17.859375 18.453125 17.875 18.445312 17.890625 C 18.429688 17.90625 18.414062 17.921875 18.398438 17.929688 C 17.9375 18.421875 17.9375 18.421875 17.820312 18.460938 C 17.820312 18.476562 17.820312 18.484375 17.820312 18.5 C 17.765625 18.554688 17.695312 18.601562 17.632812 18.648438 C 17.601562 18.679688 17.5625 18.710938 17.523438 18.742188 C 17.117188 19.070312 16.679688 19.351562 16.21875 19.601562 C 16.1875 19.617188 16.164062 19.632812 16.132812 19.648438 C 15.226562 20.140625 14.21875 20.4375 13.203125 20.578125 C 13.164062 20.585938 13.164062 20.585938 13.132812 20.59375 C 11.90625 20.757812 10.609375 20.625 9.4375 20.242188 C 9.421875 20.234375 9.398438 20.226562 9.375 20.21875 C 9.078125 20.117188 8.789062 20.007812 8.5 19.882812 C 8.484375 19.875 8.46875 19.867188 8.460938 19.859375 C 8.078125 19.6875 7.710938 19.492188 7.359375 19.257812 C 7.351562 19.25 7.335938 19.242188 7.328125 19.234375 C 7.070312 19.070312 6.820312 18.898438 6.585938 18.695312 C 6.546875 18.664062 6.5 18.632812 6.453125 18.601562 C 6.4375 18.585938 6.421875 18.570312 6.398438 18.5625 C 6.398438 18.546875 6.398438 18.53125 6.398438 18.523438 C 6.382812 18.515625 6.382812 18.515625 6.367188 18.507812 C 6.320312 18.476562 6.289062 18.453125 6.25 18.414062 C 6.226562 18.398438 6.226562 18.398438 6.210938 18.382812 C 6.1875 18.359375 6.1875 18.359375 6.164062 18.335938 C 6.148438 18.320312 6.132812 18.3125 6.117188 18.296875 C 6.015625 18.195312 5.90625 18.085938 5.796875 17.984375 C 5.78125 17.960938 5.78125 17.960938 5.757812 17.9375 C 5.742188 17.929688 5.734375 17.914062 5.71875 17.90625 C 5.703125 17.890625 5.695312 17.882812 5.6875 17.867188 C 5.65625 17.84375 5.65625 17.84375 5.65625 17.796875 C 5.648438 17.796875 5.632812 17.796875 5.617188 17.796875 C 5.585938 17.765625 5.585938 17.765625 5.546875 17.71875 C 5.53125 17.710938 5.523438 17.695312 5.507812 17.679688 C 5.476562 17.640625 5.476562 17.640625 5.476562 17.601562 C 5.46875 17.601562 5.453125 17.601562 5.4375 17.601562 C 5.414062 17.570312 5.414062 17.570312 5.382812 17.53125 C 5.335938 17.46875 5.296875 17.414062 5.25 17.351562 C 5.132812 17.210938 5.023438 17.0625 4.921875 16.914062 C 4.898438 16.875 4.875 16.84375 4.851562 16.8125 C 4.757812 16.671875 4.671875 16.539062 4.585938 16.398438 C 4.578125 16.382812 4.570312 16.367188 4.5625 16.351562 C 4.4375 16.148438 4.328125 15.945312 4.226562 15.726562 C 4.21875 15.710938 4.203125 15.6875 4.195312 15.664062 C 4.007812 15.265625 4.007812 15.265625 3.9375 15.078125 C 3.929688 15.054688 3.929688 15.054688 3.921875 15.039062 C 3.890625 14.945312 3.859375 14.859375 3.835938 14.765625 C 3.820312 14.710938 3.796875 14.65625 3.773438 14.601562 C 3.570312 14.046875 3.46875 13.445312 3.398438 12.859375 C 3.398438 12.835938 3.398438 12.835938 3.390625 12.804688 C 3.3125 12.15625 3.335938 11.46875 3.421875 10.820312 C 3.421875 10.796875 3.429688 10.773438 3.429688 10.75 C 3.554688 9.859375 3.804688 8.953125 4.21875 8.15625 C 4.242188 8.117188 4.257812 8.078125 4.28125 8.039062 C 4.554688 7.492188 4.875 6.976562 5.257812 6.5 C 5.28125 6.46875 5.28125 6.46875 5.304688 6.4375 C 5.34375 6.390625 5.382812 6.34375 5.421875 6.296875 C 5.445312 6.273438 5.445312 6.273438 5.46875 6.242188 C 5.484375 6.21875 5.5 6.195312 5.515625 6.179688 C 5.53125 6.15625 5.546875 6.140625 5.5625 6.117188 C 5.578125 6.101562 5.578125 6.101562 5.601562 6.078125 C 5.609375 6.078125 5.625 6.078125 5.640625 6.078125 C 5.640625 6.070312 5.648438 6.0625 5.65625 6.046875 C 5.6875 5.984375 5.742188 5.929688 5.796875 5.875 C 5.8125 5.867188 5.820312 5.851562 5.835938 5.84375 C 5.859375 5.8125 5.882812 5.789062 5.914062 5.765625 C 5.945312 5.726562 5.984375 5.6875 6.023438 5.648438 C 6.164062 5.507812 6.304688 5.382812 6.460938 5.257812 C 6.484375 5.234375 6.515625 5.21875 6.539062 5.195312 C 6.789062 4.992188 7.046875 4.804688 7.3125 4.625 C 7.359375 4.59375 7.40625 4.5625 7.453125 4.53125 C 7.507812 4.492188 7.554688 4.460938 7.617188 4.429688 C 7.6875 4.390625 7.757812 4.351562 7.820312 4.3125 C 8.851562 3.726562 9.984375 3.390625 11.15625 3.242188 C 11.1875 3.234375 11.1875 3.234375 11.21875 3.234375 C 13.03125 3.007812 14.984375 3.492188 16.53125 4.429688 Z M 11.101562 3.921875 C 11.078125 3.921875 11.078125 3.921875 11.054688 3.929688 C 10.945312 3.945312 10.828125 3.960938 10.71875 3.976562 C 10.703125 3.984375 10.6875 3.984375 10.671875 3.984375 C 9.867188 4.117188 9.09375 4.382812 8.382812 4.78125 C 8.367188 4.789062 8.34375 4.796875 8.328125 4.804688 C 7.984375 5 7.648438 5.210938 7.335938 5.460938 C 7.296875 5.492188 7.257812 5.515625 7.210938 5.539062 C 7.148438 5.578125 7.109375 5.601562 7.0625 5.65625 C 7.007812 5.710938 6.945312 5.765625 6.882812 5.820312 C 6.75 5.929688 6.625 6.046875 6.507812 6.171875 C 6.46875 6.210938 6.429688 6.242188 6.390625 6.28125 C 6.265625 6.40625 6.148438 6.53125 6.039062 6.671875 C 6 6.71875 5.960938 6.765625 5.921875 6.804688 C 5.90625 6.828125 5.90625 6.828125 5.890625 6.84375 C 5.882812 6.859375 5.867188 6.867188 5.859375 6.882812 C 5.789062 6.953125 5.789062 6.953125 5.757812 7.039062 C 5.75 7.039062 5.734375 7.039062 5.71875 7.039062 C 5.695312 7.078125 5.695312 7.078125 5.671875 7.125 C 5.617188 7.210938 5.5625 7.296875 5.5 7.382812 C 5.414062 7.523438 5.328125 7.65625 5.242188 7.796875 C 5.226562 7.8125 5.21875 7.835938 5.210938 7.851562 C 5.125 7.984375 5.054688 8.132812 4.984375 8.28125 C 4.960938 8.320312 4.9375 8.359375 4.921875 8.398438 C 4.679688 8.859375 4.515625 9.34375 4.375 9.84375 C 4.367188 9.867188 4.367188 9.867188 4.359375 9.890625 C 4.34375 9.9375 4.335938 9.992188 4.320312 10.039062 C 4.320312 10.054688 4.3125 10.0625 4.3125 10.078125 C 4.25 10.320312 4.21875 10.554688 4.195312 10.804688 C 4.195312 10.835938 4.1875 10.875 4.1875 10.90625 C 4.179688 10.992188 4.171875 11.070312 4.164062 11.15625 C 4.164062 11.195312 4.15625 11.234375 4.15625 11.273438 C 4.132812 11.484375 4.132812 11.695312 4.132812 11.90625 C 4.132812 11.921875 4.132812 11.945312 4.132812 11.960938 C 4.132812 12.25 4.140625 12.539062 4.171875 12.820312 C 4.179688 12.882812 4.1875 12.945312 4.1875 13.007812 C 4.257812 13.695312 4.460938 14.359375 4.71875 15 C 4.726562 15.015625 4.734375 15.03125 4.742188 15.054688 C 4.9375 15.539062 5.203125 16.007812 5.5 16.445312 C 5.539062 16.492188 5.570312 16.546875 5.601562 16.601562 C 5.671875 16.71875 5.75 16.828125 5.835938 16.929688 C 5.851562 16.945312 5.851562 16.945312 5.859375 16.96875 C 5.914062 17.039062 5.976562 17.101562 6.039062 17.15625 C 6.070312 17.1875 6.09375 17.21875 6.125 17.25 C 6.265625 17.40625 6.414062 17.554688 6.5625 17.703125 C 6.585938 17.726562 6.609375 17.75 6.632812 17.773438 C 6.664062 17.8125 6.695312 17.84375 6.734375 17.875 C 6.742188 17.890625 6.75 17.898438 6.765625 17.90625 C 6.8125 17.960938 6.8125 17.960938 6.882812 17.976562 C 6.882812 17.992188 6.882812 18.007812 6.882812 18.023438 C 6.914062 18.046875 6.945312 18.078125 6.976562 18.101562 C 7.054688 18.164062 7.125 18.226562 7.203125 18.289062 C 7.28125 18.367188 7.367188 18.421875 7.453125 18.484375 C 7.523438 18.523438 7.578125 18.5625 7.640625 18.601562 C 8.148438 18.929688 8.664062 19.21875 9.21875 19.4375 C 9.234375 19.445312 9.25 19.453125 9.265625 19.460938 C 9.929688 19.71875 10.625 19.882812 11.34375 19.9375 C 11.367188 19.945312 11.367188 19.945312 11.390625 19.945312 C 12.859375 20.070312 14.367188 19.820312 15.679688 19.125 C 15.710938 19.109375 15.734375 19.09375 15.765625 19.078125 C 16.085938 18.914062 16.382812 18.71875 16.679688 18.523438 C 16.710938 18.5 16.742188 18.476562 16.78125 18.453125 C 16.992188 18.3125 16.992188 18.3125 17.179688 18.140625 C 17.296875 18.023438 17.421875 17.90625 17.546875 17.804688 C 17.570312 17.789062 17.585938 17.773438 17.601562 17.757812 C 17.601562 17.75 17.601562 17.734375 17.601562 17.71875 C 17.609375 17.71875 17.625 17.710938 17.632812 17.710938 C 17.6875 17.679688 17.71875 17.640625 17.757812 17.59375 C 17.804688 17.53125 17.859375 17.476562 17.914062 17.421875 C 17.929688 17.414062 17.945312 17.398438 17.953125 17.382812 C 17.96875 17.375 17.976562 17.359375 17.992188 17.351562 C 18.023438 17.320312 18.023438 17.320312 18.023438 17.28125 C 18.039062 17.273438 18.0625 17.265625 18.078125 17.257812 C 18.109375 17.226562 18.132812 17.195312 18.164062 17.164062 C 18.226562 17.085938 18.289062 17.007812 18.351562 16.9375 C 18.421875 16.859375 18.476562 16.789062 18.523438 16.695312 C 18.570312 16.625 18.617188 16.554688 18.664062 16.484375 C 18.773438 16.335938 18.867188 16.179688 18.960938 16.023438 C 18.976562 16 18.984375 15.976562 19 15.953125 C 19.039062 15.882812 19.078125 15.8125 19.117188 15.742188 C 19.125 15.726562 19.132812 15.710938 19.140625 15.695312 C 19.578125 14.90625 19.929688 13.984375 19.992188 13.078125 C 20 13.007812 20.007812 12.945312 20.015625 12.875 C 20.09375 12.179688 20.078125 11.476562 20 10.78125 C 20 10.757812 19.992188 10.734375 19.992188 10.710938 C 19.867188 9.484375 19.320312 8.351562 18.65625 7.320312 C 18.648438 7.296875 18.648438 7.296875 18.632812 7.273438 C 18.539062 7.132812 18.445312 6.992188 18.320312 6.867188 C 18.28125 6.820312 18.234375 6.765625 18.195312 6.710938 C 18.03125 6.507812 17.84375 6.320312 17.65625 6.132812 C 17.640625 6.117188 17.617188 6.09375 17.601562 6.078125 C 17.484375 5.953125 17.359375 5.84375 17.226562 5.742188 C 17.1875 5.703125 17.148438 5.664062 17.109375 5.625 C 17.039062 5.554688 16.96875 5.507812 16.882812 5.460938 C 16.8125 5.414062 16.75 5.367188 16.679688 5.320312 C 16.5 5.179688 16.296875 5.0625 16.101562 4.9375 C 16.085938 4.929688 16.0625 4.921875 16.046875 4.90625 C 15.820312 4.773438 15.585938 4.648438 15.34375 4.539062 C 15.328125 4.53125 15.3125 4.53125 15.296875 4.523438 C 15.085938 4.421875 14.867188 4.335938 14.640625 4.257812 C 14.625 4.25 14.601562 4.25 14.585938 4.242188 C 13.796875 3.96875 12.929688 3.859375 12.101562 3.859375 C 12.078125 3.859375 12.054688 3.859375 12.023438 3.859375 C 11.71875 3.859375 11.40625 3.875 11.101562 3.921875 Z M 11.101562 3.921875 "/>
<path style=" stroke:none;fill-rule:nonzero;fill:rgb(0%,0%,0%);fill-opacity:1;" d="M 15.984375 5.445312 C 16.046875 5.484375 16.109375 5.515625 16.171875 5.554688 C 16.25 5.59375 16.320312 5.640625 16.398438 5.695312 C 16.414062 5.703125 16.414062 5.703125 16.429688 5.71875 C 16.46875 5.75 16.5 5.773438 16.539062 5.796875 C 16.554688 5.8125 16.554688 5.8125 16.570312 5.828125 C 16.648438 5.882812 16.726562 5.9375 16.796875 6 C 16.8125 6.007812 16.820312 6.015625 16.828125 6.023438 C 17 6.164062 17.15625 6.3125 17.3125 6.46875 C 17.320312 6.476562 17.328125 6.484375 17.335938 6.492188 C 17.4375 6.59375 17.539062 6.695312 17.632812 6.804688 C 17.65625 6.835938 17.6875 6.867188 17.71875 6.898438 C 17.757812 6.9375 17.757812 6.9375 17.757812 6.976562 C 17.78125 6.984375 17.796875 6.992188 17.820312 7 C 17.859375 7.039062 17.890625 7.085938 17.921875 7.125 C 17.929688 7.140625 17.945312 7.148438 17.953125 7.164062 C 17.96875 7.1875 17.992188 7.21875 18.015625 7.242188 C 18.039062 7.273438 18.0625 7.3125 18.085938 7.34375 C 18.195312 7.484375 18.296875 7.632812 18.398438 7.789062 C 18.429688 7.828125 18.460938 7.875 18.484375 7.914062 C 18.53125 7.984375 18.570312 8.054688 18.601562 8.132812 C 18.625 8.1875 18.648438 8.234375 18.671875 8.28125 C 18.757812 8.421875 18.828125 8.570312 18.898438 8.71875 C 18.914062 8.742188 18.921875 8.765625 18.929688 8.789062 C 19.007812 8.945312 19.070312 9.109375 19.125 9.28125 C 19.140625 9.328125 19.164062 9.382812 19.179688 9.429688 C 19.859375 11.304688 19.703125 13.398438 18.859375 15.203125 C 18.796875 15.328125 18.734375 15.453125 18.664062 15.578125 C 18.640625 15.617188 18.617188 15.65625 18.601562 15.703125 C 18.40625 16.085938 18.140625 16.4375 17.859375 16.765625 C 17.835938 16.804688 17.804688 16.84375 17.773438 16.875 C 17.757812 16.898438 17.742188 16.914062 17.726562 16.9375 C 17.71875 16.953125 17.703125 16.96875 17.6875 16.984375 C 17.648438 17.03125 17.617188 17.0625 17.570312 17.101562 C 17.5 17.164062 17.429688 17.226562 17.359375 17.296875 C 17.351562 17.304688 17.34375 17.320312 17.328125 17.328125 C 17.289062 17.375 17.242188 17.414062 17.203125 17.460938 C 17.0625 17.601562 16.921875 17.734375 16.757812 17.859375 C 16.742188 17.875 16.742188 17.875 16.71875 17.890625 C 16.40625 18.140625 16.0625 18.382812 15.703125 18.5625 C 15.664062 18.578125 15.625 18.601562 15.578125 18.625 C 14.5 19.210938 13.304688 19.484375 12.078125 19.484375 C 12.0625 19.484375 12.046875 19.484375 12.03125 19.484375 C 10.804688 19.484375 9.609375 19.171875 8.539062 18.578125 C 8.5 18.554688 8.453125 18.539062 8.414062 18.515625 C 8.265625 18.4375 8.125 18.359375 7.992188 18.257812 C 7.9375 18.21875 7.882812 18.1875 7.828125 18.148438 C 7.734375 18.085938 7.640625 18.023438 7.554688 17.945312 C 7.5 17.90625 7.453125 17.859375 7.398438 17.820312 C 7.179688 17.648438 6.976562 17.445312 6.78125 17.242188 C 6.734375 17.203125 6.695312 17.15625 6.648438 17.117188 C 6.507812 16.96875 6.367188 16.820312 6.242188 16.65625 C 6.226562 16.648438 6.21875 16.632812 6.210938 16.617188 C 6.179688 16.578125 6.148438 16.539062 6.125 16.507812 C 6.109375 16.492188 6.101562 16.476562 6.09375 16.460938 C 5.90625 16.210938 5.71875 15.945312 5.578125 15.664062 C 5.554688 15.601562 5.523438 15.546875 5.492188 15.484375 C 5.09375 14.742188 4.8125 13.945312 4.6875 13.109375 C 4.679688 13.085938 4.679688 13.0625 4.671875 13.039062 C 4.617188 12.6875 4.59375 12.34375 4.59375 11.984375 C 4.59375 11.929688 4.59375 11.875 4.59375 11.820312 C 4.59375 11.109375 4.703125 10.390625 4.921875 9.71875 C 4.921875 9.703125 4.929688 9.6875 4.9375 9.664062 C 5.0625 9.28125 5.195312 8.914062 5.382812 8.5625 C 5.40625 8.515625 5.421875 8.46875 5.445312 8.421875 C 5.6875 7.9375 5.976562 7.5 6.320312 7.078125 C 6.335938 7.0625 6.34375 7.046875 6.359375 7.03125 C 6.40625 6.976562 6.453125 6.929688 6.5 6.882812 C 6.578125 6.804688 6.65625 6.726562 6.734375 6.640625 C 6.867188 6.484375 6.867188 6.484375 6.9375 6.421875 C 6.953125 6.421875 6.96875 6.421875 6.976562 6.421875 C 6.984375 6.40625 6.992188 6.398438 6.992188 6.382812 C 7.09375 6.203125 7.304688 6.070312 7.460938 5.945312 C 7.5 5.921875 7.53125 5.898438 7.5625 5.867188 C 7.765625 5.710938 7.976562 5.554688 8.203125 5.445312 C 8.265625 5.421875 8.3125 5.390625 8.367188 5.351562 C 8.820312 5.054688 9.335938 4.835938 9.859375 4.679688 C 9.882812 4.671875 9.898438 4.664062 9.921875 4.664062 C 11.648438 4.101562 13.601562 4.265625 15.984375 5.445312 Z M 9.203125 5.71875 C 9.164062 5.804688 9.148438 5.890625 9.132812 5.976562 C 9.125 6 9.117188 6.03125 9.117188 6.054688 C 9.117188 6.070312 9.109375 6.078125 9.109375 6.09375 C 9.101562 6.148438 9.085938 6.203125 9.070312 6.257812 C 9.054688 6.328125 9.039062 6.398438 9.023438 6.460938 C 9.023438 6.492188 9.015625 6.523438 9.007812 6.5625 C 9 6.578125 9 6.59375 9 6.609375 C 8.929688 6.960938 8.851562 7.304688 8.773438 7.65625 C 8.757812 7.710938 8.75 7.773438 8.734375 7.835938 C 8.734375 7.851562 8.726562 7.875 8.726562 7.890625 C 8.71875 7.921875 8.710938 7.953125 8.703125 7.984375 C 8.6875 8.078125 8.6875 8.078125 8.640625 8.117188 C 8.476562 8.164062 8.296875 8.171875 8.132812 8.1875 C 8.09375 8.1875 8.054688 8.195312 8.015625 8.195312 C 7.976562 8.203125 7.929688 8.203125 7.890625 8.210938 C 7.75 8.226562 7.609375 8.234375 7.476562 8.25 C 7.453125 8.25 7.453125 8.25 7.429688 8.25 C 7.125 8.28125 6.820312 8.3125 6.523438 8.351562 C 6.4375 8.359375 6.359375 8.375 6.28125 8.382812 C 6.28125 8.390625 6.28125 8.40625 6.28125 8.421875 C 6.296875 8.429688 6.296875 8.429688 6.320312 8.4375 C 6.882812 8.75 6.882812 8.75 7.140625 8.921875 C 7.226562 8.984375 7.320312 9.039062 7.421875 9.085938 C 7.640625 9.203125 7.851562 9.328125 8.070312 9.460938 C 8.085938 9.46875 8.109375 9.484375 8.132812 9.5 C 8.15625 9.507812 8.179688 9.523438 8.195312 9.539062 C 8.226562 9.554688 8.226562 9.554688 8.257812 9.570312 C 8.296875 9.601562 8.296875 9.601562 8.34375 9.640625 C 8.351562 9.757812 8.328125 9.859375 8.296875 9.976562 C 8.296875 9.992188 8.289062 10.007812 8.289062 10.03125 C 8.28125 10.070312 8.265625 10.109375 8.257812 10.148438 C 8.234375 10.25 8.210938 10.351562 8.1875 10.453125 C 8.1875 10.476562 8.179688 10.492188 8.179688 10.515625 C 8.148438 10.65625 8.117188 10.796875 8.085938 10.9375 C 8.039062 11.195312 7.976562 11.460938 7.921875 11.71875 C 7.914062 11.734375 7.914062 11.75 7.90625 11.765625 C 7.898438 11.804688 7.890625 11.835938 7.882812 11.867188 C 7.867188 11.945312 7.867188 11.945312 7.859375 12.023438 C 7.9375 11.992188 7.984375 11.96875 8.039062 11.90625 C 8.132812 11.804688 8.234375 11.71875 8.34375 11.632812 C 8.359375 11.617188 8.359375 11.617188 8.382812 11.601562 C 8.382812 11.585938 8.382812 11.570312 8.382812 11.5625 C 8.398438 11.554688 8.398438 11.554688 8.414062 11.546875 C 8.460938 11.523438 8.484375 11.5 8.523438 11.460938 C 8.523438 11.445312 8.523438 11.4375 8.523438 11.421875 C 8.53125 11.414062 8.546875 11.40625 8.554688 11.40625 C 8.601562 11.382812 8.601562 11.382812 8.640625 11.34375 C 8.679688 11.296875 8.679688 11.296875 8.726562 11.273438 C 8.789062 11.234375 8.828125 11.1875 8.882812 11.140625 C 8.921875 11.101562 8.960938 11.0625 9 11.03125 C 9.070312 10.976562 9.125 10.914062 9.1875 10.851562 C 9.21875 10.820312 9.21875 10.820312 9.28125 10.78125 C 9.28125 10.765625 9.28125 10.75 9.28125 10.742188 C 9.289062 10.734375 9.304688 10.726562 9.3125 10.726562 C 9.359375 10.703125 9.390625 10.679688 9.421875 10.640625 C 9.4375 10.625 9.4375 10.625 9.460938 10.609375 C 9.476562 10.59375 9.476562 10.59375 9.492188 10.578125 C 9.632812 10.445312 9.632812 10.445312 9.710938 10.429688 C 9.8125 10.445312 9.875 10.492188 9.960938 10.539062 C 9.992188 10.5625 10.03125 10.585938 10.0625 10.609375 C 10.085938 10.617188 10.101562 10.632812 10.125 10.640625 C 10.21875 10.703125 10.328125 10.765625 10.429688 10.828125 C 10.460938 10.84375 10.460938 10.84375 10.492188 10.859375 C 10.59375 10.921875 10.703125 10.984375 10.8125 11.046875 C 10.921875 11.109375 11.03125 11.179688 11.140625 11.242188 C 11.203125 11.28125 11.203125 11.28125 11.273438 11.3125 C 11.34375 11.34375 11.398438 11.375 11.46875 11.414062 C 11.578125 11.492188 11.695312 11.554688 11.820312 11.617188 C 11.78125 11.492188 11.734375 11.375 11.679688 11.257812 C 11.664062 11.226562 11.640625 11.195312 11.625 11.164062 C 11.617188 11.140625 11.609375 11.125 11.601562 11.109375 C 11.515625 10.921875 11.429688 10.734375 11.359375 10.539062 C 11.296875 10.367188 11.21875 10.203125 11.140625 10.03125 C 11.101562 9.945312 11.0625 9.851562 11.023438 9.765625 C 11.007812 9.742188 11.007812 9.742188 11 9.710938 C 10.984375 9.679688 10.96875 9.65625 10.960938 9.625 C 10.945312 9.59375 10.9375 9.570312 10.921875 9.539062 C 10.875 9.4375 10.875 9.382812 10.898438 9.28125 C 10.9375 9.257812 10.9375 9.257812 10.976562 9.242188 C 11.015625 9.210938 11.015625 9.210938 11.046875 9.179688 C 11.054688 9.171875 11.070312 9.15625 11.078125 9.148438 C 11.09375 9.132812 11.109375 9.125 11.117188 9.109375 C 11.195312 9.039062 11.273438 8.96875 11.359375 8.898438 C 11.375 8.882812 11.382812 8.867188 11.398438 8.851562 C 11.445312 8.796875 11.492188 8.75 11.554688 8.703125 C 11.601562 8.664062 11.640625 8.617188 11.6875 8.578125 C 11.765625 8.507812 11.851562 8.429688 11.9375 8.367188 C 12.046875 8.28125 12.140625 8.1875 12.242188 8.09375 C 12.25 8.078125 12.265625 8.070312 12.28125 8.054688 C 12.289062 8.046875 12.296875 8.039062 12.3125 8.023438 C 12.34375 8 12.34375 8 12.382812 7.976562 C 12.382812 7.96875 12.382812 7.953125 12.382812 7.9375 C 12.390625 7.9375 12.40625 7.9375 12.421875 7.9375 C 12.421875 7.929688 12.421875 7.914062 12.421875 7.898438 C 12.429688 7.898438 12.445312 7.890625 12.453125 7.882812 C 12.5 7.859375 12.539062 7.835938 12.578125 7.796875 C 12.578125 7.789062 12.578125 7.773438 12.578125 7.757812 C 12.609375 7.75 12.609375 7.75 12.640625 7.742188 C 12.640625 7.726562 12.640625 7.710938 12.640625 7.703125 C 12.492188 7.710938 12.335938 7.726562 12.1875 7.742188 C 12.140625 7.75 12.09375 7.757812 12.054688 7.757812 C 12.03125 7.765625 12 7.765625 11.976562 7.765625 C 11.851562 7.78125 11.726562 7.796875 11.601562 7.804688 C 11.578125 7.8125 11.554688 7.8125 11.53125 7.8125 C 11.289062 7.84375 11.054688 7.867188 10.820312 7.890625 C 10.78125 7.898438 10.734375 7.898438 10.695312 7.90625 C 10.640625 7.914062 10.578125 7.914062 10.523438 7.921875 C 10.507812 7.921875 10.492188 7.929688 10.46875 7.929688 C 10.429688 7.929688 10.382812 7.9375 10.34375 7.9375 C 10.320312 7.945312 10.296875 7.945312 10.273438 7.945312 C 10.21875 7.9375 10.21875 7.9375 10.1875 7.90625 C 10.164062 7.859375 10.140625 7.820312 10.117188 7.773438 C 10.109375 7.75 10.101562 7.734375 10.09375 7.71875 C 10.085938 7.703125 10.078125 7.679688 10.070312 7.664062 C 10.0625 7.648438 10.054688 7.625 10.046875 7.609375 C 10.007812 7.5 9.960938 7.398438 9.921875 7.289062 C 9.828125 7.054688 9.71875 6.828125 9.617188 6.601562 C 9.53125 6.421875 9.453125 6.234375 9.367188 6.046875 C 9.367188 6.039062 9.359375 6.023438 9.351562 6.007812 C 9.335938 5.976562 9.320312 5.9375 9.304688 5.90625 C 9.28125 5.84375 9.25 5.78125 9.21875 5.71875 C 9.210938 5.71875 9.203125 5.71875 9.203125 5.71875 Z M 14.101562 8.21875 C 14.101562 8.242188 14.101562 8.242188 14.109375 8.257812 C 14.117188 8.320312 14.132812 8.382812 14.148438 8.445312 C 14.148438 8.46875 14.15625 8.492188 14.15625 8.507812 C 14.179688 8.617188 14.203125 8.726562 14.21875 8.84375 C 14.257812 9.09375 14.3125 9.351562 14.367188 9.601562 C 14.382812 9.648438 14.390625 9.695312 14.398438 9.742188 C 14.445312 9.976562 14.445312 9.976562 14.5 10.210938 C 14.507812 10.234375 14.507812 10.257812 14.515625 10.289062 C 14.523438 10.304688 14.523438 10.328125 14.53125 10.34375 C 14.5625 10.523438 14.5625 10.523438 14.539062 10.601562 C 14.492188 10.65625 14.421875 10.6875 14.359375 10.71875 C 14.328125 10.742188 14.289062 10.765625 14.257812 10.789062 C 14.148438 10.859375 14.039062 10.921875 13.921875 10.976562 C 13.921875 10.992188 13.921875 11.007812 13.921875 11.023438 C 13.90625 11.023438 13.898438 11.023438 13.890625 11.023438 C 13.820312 11.046875 13.757812 11.085938 13.695312 11.117188 C 13.578125 11.1875 13.453125 11.257812 13.320312 11.320312 C 13.195312 11.390625 13.0625 11.460938 12.9375 11.539062 C 12.890625 11.570312 12.84375 11.59375 12.796875 11.617188 C 12.796875 11.632812 12.796875 11.648438 12.796875 11.65625 C 12.78125 11.664062 12.765625 11.671875 12.75 11.671875 C 12.65625 11.710938 12.570312 11.757812 12.476562 11.820312 C 12.476562 11.828125 12.476562 11.835938 12.476562 11.84375 C 12.757812 11.882812 13.039062 11.914062 13.320312 11.9375 C 13.40625 11.945312 13.484375 11.960938 13.570312 11.96875 C 13.726562 11.984375 13.882812 12 14.039062 12.015625 C 14.148438 12.023438 14.257812 12.03125 14.367188 12.046875 C 14.40625 12.046875 14.445312 12.054688 14.492188 12.054688 C 14.546875 12.0625 14.601562 12.070312 14.664062 12.070312 C 14.6875 12.078125 14.6875 12.078125 14.710938 12.078125 C 14.789062 12.085938 14.828125 12.09375 14.890625 12.140625 C 14.921875 12.1875 14.9375 12.21875 14.945312 12.273438 C 14.953125 12.304688 14.953125 12.304688 14.960938 12.335938 C 14.960938 12.359375 14.96875 12.382812 14.96875 12.40625 C 14.976562 12.445312 14.984375 12.484375 14.992188 12.515625 C 15 12.546875 15.007812 12.570312 15.015625 12.601562 C 15.039062 12.71875 15.0625 12.84375 15.085938 12.960938 C 15.09375 12.976562 15.09375 13 15.101562 13.015625 C 15.109375 13.054688 15.117188 13.09375 15.125 13.140625 C 15.179688 13.390625 15.234375 13.648438 15.289062 13.90625 C 15.296875 13.960938 15.3125 14.015625 15.320312 14.0625 C 15.328125 14.117188 15.335938 14.164062 15.351562 14.210938 C 15.359375 14.242188 15.359375 14.273438 15.367188 14.304688 C 15.375 14.328125 15.375 14.351562 15.382812 14.375 C 15.398438 14.445312 15.398438 14.445312 15.4375 14.5 C 15.554688 14.273438 15.65625 14.054688 15.75 13.820312 C 15.789062 13.695312 15.84375 13.585938 15.898438 13.46875 C 15.945312 13.351562 15.992188 13.242188 16.039062 13.125 C 16.132812 12.90625 16.226562 12.6875 16.34375 12.476562 C 16.359375 12.4375 16.382812 12.398438 16.40625 12.351562 C 16.421875 12.320312 16.421875 12.320312 16.4375 12.296875 C 16.632812 12.289062 16.828125 12.304688 17.015625 12.328125 C 17.039062 12.328125 17.0625 12.328125 17.09375 12.335938 C 17.25 12.351562 17.40625 12.367188 17.5625 12.390625 C 17.828125 12.421875 18.09375 12.445312 18.359375 12.476562 C 18.40625 12.476562 18.453125 12.484375 18.5 12.484375 C 18.617188 12.5 18.726562 12.507812 18.84375 12.523438 C 18.804688 12.445312 18.765625 12.398438 18.703125 12.34375 C 18.679688 12.328125 18.664062 12.3125 18.648438 12.296875 C 18.601562 12.257812 18.601562 12.257812 18.5625 12.257812 C 18.554688 12.25 18.546875 12.234375 18.546875 12.226562 C 18.476562 12.09375 18.335938 11.992188 18.226562 11.898438 C 18.171875 11.851562 18.117188 11.804688 18.070312 11.757812 C 17.929688 11.625 17.78125 11.507812 17.640625 11.382812 C 17.625 11.367188 17.617188 11.359375 17.601562 11.351562 C 17.53125 11.289062 17.460938 11.226562 17.390625 11.171875 C 17.328125 11.117188 17.265625 11.070312 17.210938 11.007812 C 17.195312 10.992188 17.179688 10.976562 17.15625 10.960938 C 17.148438 10.960938 17.132812 10.960938 17.117188 10.960938 C 17.078125 10.734375 17.171875 10.5625 17.265625 10.359375 C 17.273438 10.335938 17.289062 10.3125 17.296875 10.28125 C 17.320312 10.234375 17.34375 10.179688 17.367188 10.132812 C 17.414062 10.023438 17.460938 9.921875 17.507812 9.8125 C 17.539062 9.75 17.5625 9.6875 17.59375 9.625 C 17.65625 9.515625 17.703125 9.398438 17.757812 9.28125 C 17.773438 9.234375 17.796875 9.1875 17.820312 9.140625 C 17.835938 9.101562 17.835938 9.101562 17.851562 9.070312 C 17.875 9.007812 17.90625 8.945312 17.929688 8.882812 C 17.9375 8.867188 17.945312 8.851562 17.953125 8.835938 C 17.96875 8.804688 17.984375 8.773438 17.992188 8.742188 C 18.03125 8.671875 18.03125 8.671875 18.039062 8.601562 C 17.960938 8.632812 17.890625 8.664062 17.820312 8.703125 C 17.8125 8.710938 17.796875 8.71875 17.789062 8.726562 C 17.75 8.75 17.710938 8.765625 17.679688 8.789062 C 17.664062 8.796875 17.648438 8.804688 17.640625 8.8125 C 17.476562 8.90625 17.3125 9 17.148438 9.101562 C 16.851562 9.28125 16.546875 9.460938 16.242188 9.640625 C 16.203125 9.65625 16.164062 9.679688 16.132812 9.703125 C 16.109375 9.710938 16.09375 9.71875 16.070312 9.734375 C 16.054688 9.742188 16.039062 9.75 16.023438 9.757812 C 15.96875 9.789062 15.921875 9.789062 15.859375 9.78125 C 15.820312 9.75 15.820312 9.75 15.78125 9.71875 C 15.765625 9.703125 15.75 9.6875 15.734375 9.679688 C 15.726562 9.664062 15.710938 9.65625 15.703125 9.640625 C 15.679688 9.617188 15.679688 9.617188 15.648438 9.59375 C 15.632812 9.578125 15.617188 9.554688 15.601562 9.539062 C 15.421875 9.335938 15.421875 9.335938 15.203125 9.203125 C 15.203125 9.1875 15.203125 9.171875 15.203125 9.15625 C 15.171875 9.132812 15.132812 9.101562 15.101562 9.078125 C 15.007812 9.007812 14.921875 8.929688 14.84375 8.84375 C 14.789062 8.789062 14.734375 8.742188 14.679688 8.695312 C 14.632812 8.65625 14.585938 8.617188 14.539062 8.570312 C 14.460938 8.492188 14.375 8.421875 14.28125 8.351562 C 14.242188 8.320312 14.242188 8.320312 14.203125 8.289062 C 14.179688 8.257812 14.179688 8.257812 14.140625 8.257812 C 14.140625 8.25 14.140625 8.234375 14.140625 8.21875 C 14.125 8.21875 14.117188 8.21875 14.101562 8.21875 Z M 11.9375 12.320312 C 11.898438 12.367188 11.867188 12.414062 11.828125 12.460938 C 11.8125 12.492188 11.789062 12.523438 11.765625 12.546875 C 11.757812 12.5625 11.742188 12.578125 11.734375 12.59375 C 11.671875 12.671875 11.617188 12.75 11.554688 12.828125 C 11.460938 12.9375 11.382812 13.046875 11.320312 13.179688 C 11.296875 13.21875 11.265625 13.257812 11.242188 13.289062 C 11.171875 13.375 11.109375 13.46875 11.039062 13.554688 C 11.03125 13.570312 11.023438 13.578125 11.015625 13.59375 C 10.992188 13.625 10.96875 13.664062 10.9375 13.703125 C 10.90625 13.75 10.867188 13.796875 10.835938 13.84375 C 10.828125 13.859375 10.820312 13.867188 10.8125 13.882812 C 10.757812 13.960938 10.695312 14.039062 10.640625 14.109375 C 10.617188 14.140625 10.617188 14.140625 10.617188 14.179688 C 10.59375 14.1875 10.59375 14.1875 10.5625 14.203125 C 10.5625 14.210938 10.5625 14.226562 10.5625 14.242188 C 10.429688 14.234375 10.3125 14.210938 10.1875 14.179688 C 10.171875 14.171875 10.171875 14.171875 10.148438 14.164062 C 10.03125 14.132812 9.914062 14.085938 9.796875 14.046875 C 9.648438 13.992188 9.492188 13.945312 9.34375 13.898438 C 9.257812 13.867188 9.179688 13.84375 9.101562 13.820312 C 9.085938 13.8125 9.070312 13.804688 9.054688 13.804688 C 8.929688 13.765625 8.796875 13.71875 8.671875 13.679688 C 8.65625 13.671875 8.640625 13.671875 8.625 13.664062 C 8.554688 13.640625 8.484375 13.617188 8.414062 13.585938 C 8.335938 13.5625 8.28125 13.546875 8.203125 13.539062 C 8.21875 13.578125 8.242188 13.609375 8.265625 13.640625 C 8.273438 13.664062 8.289062 13.679688 8.304688 13.703125 C 8.335938 13.757812 8.375 13.804688 8.421875 13.859375 C 8.4375 13.890625 8.460938 13.929688 8.484375 13.960938 C 8.539062 14.054688 8.609375 14.148438 8.679688 14.234375 C 8.78125 14.367188 8.882812 14.515625 8.984375 14.65625 C 9.039062 14.734375 9.101562 14.8125 9.15625 14.890625 C 9.164062 14.90625 9.179688 14.921875 9.1875 14.9375 C 9.25 15.015625 9.304688 15.101562 9.367188 15.179688 C 9.382812 15.195312 9.390625 15.210938 9.40625 15.234375 C 9.429688 15.265625 9.453125 15.296875 9.484375 15.335938 C 9.492188 15.351562 9.507812 15.367188 9.523438 15.382812 C 9.53125 15.398438 9.546875 15.414062 9.554688 15.429688 C 9.59375 15.5 9.578125 15.546875 9.5625 15.617188 C 9.53125 15.664062 9.5 15.703125 9.46875 15.742188 C 9.453125 15.765625 9.429688 15.789062 9.414062 15.8125 C 9.398438 15.828125 9.398438 15.828125 9.382812 15.84375 C 9.28125 15.984375 9.179688 16.125 9.078125 16.265625 C 9.015625 16.359375 8.945312 16.460938 8.875 16.554688 C 8.859375 16.578125 8.859375 16.578125 8.84375 16.601562 C 8.78125 16.679688 8.726562 16.757812 8.671875 16.828125 C 8.5625 16.984375 8.453125 17.132812 8.34375 17.289062 C 8.335938 17.304688 8.328125 17.3125 8.3125 17.328125 C 8.304688 17.34375 8.296875 17.359375 8.289062 17.367188 C 8.28125 17.382812 8.273438 17.390625 8.265625 17.40625 C 8.242188 17.445312 8.21875 17.476562 8.203125 17.523438 C 8.375 17.476562 8.539062 17.421875 8.710938 17.359375 C 9.054688 17.242188 9.390625 17.125 9.742188 17.039062 C 9.84375 17.007812 9.945312 16.976562 10.039062 16.945312 C 10.109375 16.914062 10.1875 16.890625 10.257812 16.867188 C 10.28125 16.859375 10.304688 16.851562 10.328125 16.835938 C 10.398438 16.820312 10.453125 16.8125 10.523438 16.820312 C 10.664062 16.9375 10.765625 17.109375 10.875 17.257812 C 10.914062 17.3125 10.960938 17.375 11 17.429688 C 11.023438 17.460938 11.039062 17.484375 11.054688 17.507812 C 11.101562 17.5625 11.140625 17.625 11.1875 17.679688 C 11.25 17.773438 11.3125 17.867188 11.375 17.960938 C 11.460938 18.109375 11.5625 18.242188 11.671875 18.382812 C 11.703125 18.421875 11.726562 18.460938 11.757812 18.492188 C 11.851562 18.625 11.851562 18.625 11.960938 18.742188 C 11.976562 18.671875 11.984375 18.609375 11.984375 18.539062 C 11.984375 18.515625 11.984375 18.5 11.984375 18.476562 C 11.984375 18.453125 11.984375 18.4375 11.984375 18.414062 C 11.984375 18.390625 11.984375 18.367188 11.984375 18.34375 C 11.984375 18.265625 11.984375 18.1875 11.984375 18.117188 C 11.984375 18.0625 11.984375 18.007812 11.984375 17.953125 C 11.992188 17.828125 11.992188 17.703125 11.992188 17.578125 C 11.992188 17.4375 11.992188 17.296875 11.992188 17.15625 C 11.992188 16.867188 12 16.570312 12 16.28125 C 12.015625 16.273438 12.03125 16.273438 12.046875 16.265625 C 12.0625 16.265625 12.085938 16.257812 12.101562 16.25 C 12.132812 16.242188 12.132812 16.242188 12.164062 16.234375 C 12.234375 16.21875 12.304688 16.195312 12.375 16.171875 C 12.382812 16.164062 12.398438 16.164062 12.414062 16.15625 C 12.445312 16.148438 12.476562 16.132812 12.5 16.125 C 12.578125 16.101562 12.664062 16.070312 12.742188 16.046875 C 12.757812 16.039062 12.773438 16.039062 12.789062 16.03125 C 13 15.960938 13.210938 15.890625 13.429688 15.820312 C 13.453125 15.8125 13.484375 15.804688 13.515625 15.796875 C 13.53125 15.789062 13.539062 15.78125 13.554688 15.78125 C 13.625 15.757812 13.695312 15.734375 13.765625 15.710938 C 13.78125 15.710938 13.789062 15.703125 13.804688 15.695312 C 13.84375 15.6875 13.882812 15.671875 13.914062 15.664062 C 13.984375 15.640625 14.054688 15.625 14.125 15.609375 C 14.179688 15.59375 14.226562 15.570312 14.28125 15.539062 C 14.226562 15.484375 14.15625 15.46875 14.085938 15.445312 C 14.0625 15.4375 14.0625 15.4375 14.039062 15.429688 C 14 15.421875 13.96875 15.40625 13.929688 15.398438 C 13.84375 15.367188 13.75 15.335938 13.65625 15.3125 C 13.640625 15.304688 13.625 15.296875 13.601562 15.289062 C 13.429688 15.234375 13.265625 15.179688 13.09375 15.125 C 13.070312 15.117188 13.039062 15.109375 13.015625 15.101562 C 12.976562 15.085938 12.9375 15.070312 12.898438 15.054688 C 12.804688 15.03125 12.71875 15 12.625 14.96875 C 12.59375 14.953125 12.59375 14.953125 12.554688 14.945312 C 12.507812 14.929688 12.460938 14.914062 12.414062 14.898438 C 12.359375 14.882812 12.296875 14.859375 12.242188 14.84375 C 12.21875 14.835938 12.195312 14.828125 12.179688 14.820312 C 12.15625 14.8125 12.140625 14.804688 12.117188 14.796875 C 12.085938 14.789062 12.085938 14.789062 12.0625 14.78125 C 12.023438 14.757812 12.023438 14.757812 12 14.71875 C 12 14.6875 12 14.65625 12 14.625 C 12 14.59375 12 14.59375 12 14.5625 C 12 14.539062 11.992188 14.515625 11.992188 14.492188 C 11.992188 14.46875 11.992188 14.445312 11.992188 14.421875 C 11.992188 14.359375 11.992188 14.296875 11.992188 14.234375 C 11.992188 14.164062 11.992188 14.09375 11.992188 14.03125 C 11.992188 13.90625 11.992188 13.773438 11.992188 13.648438 C 11.992188 13.5 11.984375 13.359375 11.984375 13.210938 C 11.984375 12.914062 11.984375 12.617188 11.976562 12.320312 C 11.96875 12.320312 11.953125 12.320312 11.9375 12.320312 Z M 11.9375 12.320312 "/>
</g>
</svg>
